<svg xmlns="http://www.w3.org/2000/svg" width="1061" viewBox="0 0 795.75 810" height="1080" version="1.0"><defs><clipPath id="a"><path d="M247 578h56v231.871h-56zm0 0"/></clipPath><clipPath id="b"><path d="M302.133 810.129l-25.746-231.43h-2.89L247.75 810.13zm0 0"/></clipPath><clipPath id="d"><path d="M434 173h29v59h-29zm0 0"/></clipPath><clipPath id="e"><path d="M434.031 231.555c.946-.008 1.89-.059 2.828-.157a30.68 30.68 0 002.801-.433 29.206 29.206 0 0010.39-4.352 29.049 29.049 0 004.372-3.593 29.388 29.388 0 001.906-2.098 29.001 29.001 0 001.688-2.274 29.397 29.397 0 001.464-2.425 29.282 29.282 0 003.32-10.766c.098-.941.15-1.883.157-2.828a29.84 29.84 0 00-.144-2.836 29.204 29.204 0 00-2.078-8.223 28.454 28.454 0 00-1.22-2.562 28.45 28.45 0 00-1.46-2.434 29.817 29.817 0 00-1.688-2.277 30.32 30.32 0 00-1.906-2.102 29.307 29.307 0 00-6.809-5.054 28.245 28.245 0 00-5.234-2.176 28.608 28.608 0 00-5.555-1.117 28.528 28.528 0 00-2.832-.149zm0 0"/></clipPath><clipPath id="g"><path d="M231 398h88v64h-88zm0 0"/></clipPath><clipPath id="h"><path d="M318.328 398.906a154.409 154.409 0 01-21.473 4.66 154.601 154.601 0 01-43.832 0 154.531 154.531 0 01-21.472-4.66v40.645l43.39 21.699 43.387-21.7zm0 0"/></clipPath><clipPath id="j"><path d="M448 434h347.5v174H448zm0 0"/></clipPath><clipPath id="k"><path d="M795.602 448.52c0-.95-.09-1.891-.278-2.82a14.321 14.321 0 00-.824-2.716 14.422 14.422 0 00-5.324-6.492 14.496 14.496 0 00-5.215-2.16 14.535 14.535 0 00-2.82-.277H462.957c-.95 0-1.89.093-2.82.277a14.496 14.496 0 00-5.215 2.16 14.447 14.447 0 00-3.988 3.992c-.528.79-.973 1.621-1.336 2.5-.368.88-.641 1.782-.825 2.715-.187.93-.277 1.871-.277 2.82v159.11h347.106zm-221.18 105.488l-20.45 20.453-43.39-43.395a14.659 14.659 0 01-1.797-2.191 14.354 14.354 0 01-2.156-5.21 14.308 14.308 0 010-5.645 14.354 14.354 0 012.156-5.21 14.495 14.495 0 011.797-2.197l43.39-43.39 20.45 20.453-33.164 33.164zm47.191 28.207l-28.054-7.031 28.925-115.715 28.055 7.031zm111.899-51.149l-43.387 43.395-20.45-20.453 33.165-33.168-33.164-33.164 20.449-20.453 43.387 43.39a14.289 14.289 0 011.8 2.196 14.354 14.354 0 012.157 5.21 14.27 14.27 0 010 5.645 14.354 14.354 0 01-3.957 7.402zm0 0"/></clipPath><clipPath id="m"><path d="M304 481h131v328.871H304zm0 0"/></clipPath><clipPath id="n"><path d="M434.031 810.129v-127a42.69 42.69 0 01-6.09-6.695 42.973 42.973 0 01-4.562-7.817 42.97 42.97 0 01-2.832-8.597 43.025 43.025 0 01-.977-9V490.898l-28.925-9.109v67.98a14.51 14.51 0 01-.547 3.907 14.242 14.242 0 01-1.57 3.617 14.524 14.524 0 01-2.481 3.062 14.54 14.54 0 01-3.215 2.29 15.294 15.294 0 01-6.652 1.59 13.815 13.815 0 01-8.387-2.75l-44.836-31.965-18.656 37.316 27.047 243.293zm0 0"/></clipPath><clipPath id="p"><path d="M188 464h60v58h-60zm0 0"/></clipPath><clipPath id="q"><path d="M215.79 464.14l-27.626 8.536v49.035l58.863-42.094zm0 0"/></clipPath><clipPath id="s"><path d="M302 464h60v58h-60zm0 0"/></clipPath><clipPath id="t"><path d="M361.719 472.676l-27.625-8.535-31.239 15.476 58.864 42.094zm0 0"/></clipPath><clipPath id="v"><path d="M250 495h50v55h-50zm0 0"/></clipPath><clipPath id="w"><path d="M299.094 512.453l-24.153-17.215-24.152 17.215 18.656 37.317h10.993zm0 0"/></clipPath><clipPath id="y"><path d="M345 43h61v47h-61zm0 0"/></clipPath><clipPath id="z"><path d="M345.664 86.914h44.98c4.97.04 9.79.906 14.461 2.602V43.52h-33.117a101.878 101.878 0 01-10.425 23.355 101.885 101.885 0 01-15.899 20.04zm0 0"/></clipPath><clipPath id="B"><path d="M462 694h103v115.871H462zm0 0"/></clipPath><clipPath id="C"><path d="M549.734 752.27H564.2v-57.856H462.957V810.13h45.992a43.961 43.961 0 01-1.48-4.973 43.19 43.19 0 01-.871-5.117 43.92 43.92 0 01-.203-2.586c-.04-.863-.055-1.73-.047-2.594.011-.867.047-1.73.109-2.593a44.12 44.12 0 01.684-5.141 42.293 42.293 0 011.3-5.023c.266-.825.555-1.641.872-2.446a42.813 42.813 0 013.477-6.953 45.04 45.04 0 011.429-2.168 42.702 42.702 0 013.238-4.05 42.66 42.66 0 013.703-3.633 42.34 42.34 0 014.113-3.165 44.156 44.156 0 014.46-2.648 42.84 42.84 0 012.345-1.113c.79-.352 1.59-.676 2.402-.977a43.06 43.06 0 014.965-1.504 46.6 46.6 0 012.543-.527 43.636 43.636 0 012.567-.371 44.078 44.078 0 015.18-.277zm0 0"/></clipPath><clipPath id="E"><path d="M535 781h174v28.871H535zm0 0"/></clipPath><clipPath id="F"><path d="M708.824 795.664c0-.95-.09-1.89-.277-2.824a14.006 14.006 0 00-.824-2.711 14.422 14.422 0 00-7.824-7.828 14.321 14.321 0 00-2.715-.824 14.535 14.535 0 00-2.82-.278h-144.63c-.949 0-1.89.094-2.82.278a14.496 14.496 0 00-7.406 3.957 14.422 14.422 0 00-1.797 2.191 14.286 14.286 0 00-1.34 2.504 14.272 14.272 0 00-.82 2.71 14.304 14.304 0 00-.278 2.825c0 .95.09 1.89.278 2.82a14.31 14.31 0 002.16 5.215 14.422 14.422 0 003.988 3.989 14.251 14.251 0 005.215 2.16c.93.187 1.871.28 2.82.28h144.63c.948 0 1.89-.093 2.82-.28a14.31 14.31 0 005.214-2.16 14.422 14.422 0 005.325-6.489c.367-.879.64-1.781.824-2.715.187-.93.277-1.87.277-2.82zm0 0"/></clipPath><clipPath id="H"><path d="M144 .129h204V90H144zm0 0"/></clipPath><clipPath id="I"><path d="M144.777 89.516a43.083 43.083 0 0114.461-2.602h115.703c1.184 0 2.368-.031 3.547-.09a70.524 70.524 0 007.063-.695 70.264 70.264 0 003.496-.606 74.034 74.034 0 003.465-.777 73.919 73.919 0 006.793-2.062 72.237 72.237 0 003.308-1.278 70.627 70.627 0 003.246-1.437 75.15 75.15 0 003.172-1.594 77.322 77.322 0 003.086-1.75 70.564 70.564 0 003-1.902 71.651 71.651 0 005.7-4.227 72.296 72.296 0 002.687-2.316 72.555 72.555 0 0013.465-16.407 72.826 72.826 0 001.746-3.09 72.936 72.936 0 003.035-6.413 72.384 72.384 0 005.504-27.68V.129H217.09a71.526 71.526 0 00-7.09.348 66.562 66.562 0 00-3.52.433 71.209 71.209 0 00-10.382 2.332 73.938 73.938 0 00-3.371 1.113 70.528 70.528 0 00-3.309 1.278 75.138 75.138 0 00-3.246 1.437 72.937 72.937 0 00-6.258 3.348 71.71 71.71 0 00-11.387 8.445 69.073 69.073 0 00-2.57 2.446 75.91 75.91 0 00-2.45 2.57 72.418 72.418 0 00-2.316 2.691 68.075 68.075 0 00-2.183 2.797 71.797 71.797 0 00-8.727 15.406 72.227 72.227 0 00-5.504 27.676zm0 0"/></clipPath><clipPath id="K"><path d="M448 636h347.5v30H448zm0 0"/></clipPath><clipPath id="L"><path d="M795.602 651.02v-14.465H448.496v14.465c0 .949.09 1.89.277 2.82a14.31 14.31 0 002.16 5.215 14.422 14.422 0 003.989 3.992 14.496 14.496 0 005.215 2.16c.93.184 1.87.277 2.82.277h318.184c.949 0 1.89-.093 2.82-.277a14.496 14.496 0 005.215-2.16 14.447 14.447 0 003.988-3.992c.527-.79.973-1.621 1.336-2.5a14.41 14.41 0 001.102-5.535zm0 0"/></clipPath><clipPath id="N"><path d="M593.125 694.414h57.848v57.856h-57.848zm0 0"/></clipPath><clipPath id="P"><path d="M144 115h262v262H144zm0 0"/></clipPath><clipPath id="Q"><path d="M144.777 246.02c0 2.132.051 4.261.157 6.386.101 2.13.261 4.254.468 6.375a128.2 128.2 0 00.782 6.34 130.574 130.574 0 004.195 18.688 129.417 129.417 0 004.305 12.027 129.815 129.815 0 0015.707 27.73 132.48 132.48 0 003.93 5.04 133.067 133.067 0 008.578 9.465 129.594 129.594 0 009.464 8.577 132.115 132.115 0 005.04 3.934 134.89 134.89 0 005.222 3.676c1.77 1.183 3.57 2.324 5.398 3.422a129.816 129.816 0 0011.266 6.02 129.415 129.415 0 0024.023 8.598c2.067.518 4.145.983 6.235 1.397a128.356 128.356 0 0012.637 1.875 128.31 128.31 0 0012.757.63 128.66 128.66 0 0012.758-.629 129.349 129.349 0 0012.637-1.876 129.325 129.325 0 0018.457-5.105 131.17 131.17 0 0011.8-4.89 129.815 129.815 0 0011.266-6.02 133.704 133.704 0 005.399-3.422 134.89 134.89 0 005.222-3.676 129.355 129.355 0 005.036-3.934 129.533 129.533 0 004.84-4.171 126.246 126.246 0 004.624-4.407 129.596 129.596 0 008.579-9.465 132.116 132.116 0 003.933-5.039 130.748 130.748 0 0013.117-21.886 129.36 129.36 0 004.887-11.805 126.627 126.627 0 002.004-6.066c.621-2.04 1.188-4.09 1.707-6.157a130.575 130.575 0 003.742-25.246c.106-2.125.156-4.254.156-6.386V130.305c0-.95-.09-1.89-.277-2.82a14.496 14.496 0 00-6.148-9.207 14.496 14.496 0 00-2.5-1.337 14.31 14.31 0 00-2.715-.82 14.24 14.24 0 00-2.82-.281H159.238c-.949 0-1.89.094-2.82.281a14.31 14.31 0 00-2.715.82c-.875.364-1.71.809-2.5 1.336-.789.532-1.52 1.13-2.191 1.801a14.422 14.422 0 00-1.797 2.192 14.251 14.251 0 00-2.16 5.214 14.2 14.2 0 00-.278 2.82zm188.016-72.32c.945 0 1.89.046 2.836.14.941.09 1.879.23 2.805.414.93.184 1.847.414 2.753.691.907.274 1.801.594 2.676.957.875.36 1.73.766 2.563 1.211.836.45 1.648.934 2.437 1.461a29.113 29.113 0 016.29 5.7 28.475 28.475 0 013.148 4.719c.449.831.851 1.687 1.215 2.566.363.875.683 1.765.957 2.671.273.907.504 1.825.691 2.754a29.487 29.487 0 01.555 5.645c0 .945-.047 1.89-.14 2.832a28.3 28.3 0 01-.419 2.809 28.942 28.942 0 01-1.644 5.43 29.024 29.024 0 01-4.363 7.281 29.449 29.449 0 01-1.907 2.101 29.113 29.113 0 01-4.383 3.598 28.989 28.989 0 01-5 2.676 29.429 29.429 0 01-5.43 1.644c-.925.184-1.863.324-2.804.418-.945.09-1.89.137-2.836.137-.95 0-1.895-.047-2.836-.137a29.685 29.685 0 01-2.809-.418 29.353 29.353 0 01-5.426-1.645 28.858 28.858 0 01-5-2.676 28.544 28.544 0 01-4.383-3.598 28.544 28.544 0 01-3.597-4.382 28.456 28.456 0 01-2.672-5 28.318 28.318 0 01-.957-2.676 28.29 28.29 0 01-1.105-5.563 28.581 28.581 0 010-5.667 28.29 28.29 0 011.105-5.563c.274-.906.594-1.796.957-2.671.36-.88.766-1.735 1.211-2.567a29.177 29.177 0 013.152-4.719 28.544 28.544 0 011.907-2.101 28.544 28.544 0 014.383-3.598 28.456 28.456 0 015-2.672 28.245 28.245 0 012.672-.957 28.46 28.46 0 015.563-1.105 28.6 28.6 0 012.835-.14zm-29.172 104.866l19.164 21.696a72.186 72.186 0 01-22.27 13.418 72.146 72.146 0 01-12.574 3.492 72.371 72.371 0 01-6.472.887 72.84 72.84 0 01-13.055 0 72.177 72.177 0 01-6.473-.887 72.552 72.552 0 01-6.367-1.461 73.813 73.813 0 01-6.207-2.031 72.658 72.658 0 01-11.742-5.7 72.186 72.186 0 01-10.527-7.718l19.164-21.696c.992.836 2.02 1.63 3.082 2.38a44.947 44.947 0 003.281 2.1 43.894 43.894 0 003.453 1.806 44.375 44.375 0 0011.11 3.52 44.29 44.29 0 0011.644.51 44.29 44.29 0 007.664-1.359 44.375 44.375 0 007.309-2.672 43.894 43.894 0 003.453-1.804 45.802 45.802 0 003.281-2.102 45.544 45.544 0 003.082-2.379zM217.09 173.7c.945 0 1.89.047 2.836.14a28.46 28.46 0 015.562 1.106c.907.274 1.797.594 2.672.957a28.456 28.456 0 015 2.672 28.99 28.99 0 014.383 3.598 28.544 28.544 0 013.598 4.383 28.516 28.516 0 012.672 5.004c.363.875.683 1.765.957 2.671.273.907.503 1.825.69 2.754.185.93.325 1.864.415 2.809a28.6 28.6 0 010 5.668 28.29 28.29 0 01-1.105 5.562 28.21 28.21 0 01-.958 2.676 29.56 29.56 0 01-1.21 2.567 29.178 29.178 0 01-3.152 4.715 28.544 28.544 0 01-1.907 2.101 28.544 28.544 0 01-4.383 3.598 29.494 29.494 0 01-2.433 1.46c-.836.446-1.692.852-2.567 1.215a29.353 29.353 0 01-5.426 1.645c-.93.184-1.867.324-2.808.418-.946.09-1.89.137-2.836.137-.95 0-1.89-.047-2.836-.137a29.685 29.685 0 01-2.809-.418 29.353 29.353 0 01-5.426-1.645c-.874-.363-1.73-.77-2.566-1.214a29.178 29.178 0 01-4.715-3.152 28.544 28.544 0 01-2.101-1.907 28.544 28.544 0 01-3.598-4.383 28.456 28.456 0 01-2.672-5 28.961 28.961 0 01-1.648-5.43 28.29 28.29 0 01-.414-2.808 28.581 28.581 0 010-5.668 28.29 28.29 0 011.105-5.563c.274-.906.594-1.796.957-2.671.36-.88.766-1.735 1.211-2.567a29.177 29.177 0 013.152-4.719 28.544 28.544 0 011.907-2.101 28.544 28.544 0 014.383-3.598 28.456 28.456 0 015-2.672 28.245 28.245 0 012.671-.957 28.46 28.46 0 015.563-1.105 28.66 28.66 0 012.836-.14zm0 0"/></clipPath><clipPath id="S"><path d="M86 173h30v59H86zm0 0"/></clipPath><clipPath id="T"><path d="M86.926 202.629c.004.945.058 1.887.156 2.828.102.938.242 1.871.434 2.8a29.282 29.282 0 002.887 7.965c.449.833.937 1.641 1.46 2.426a30.07 30.07 0 001.692 2.274c.601.73 1.234 1.43 1.906 2.098a29.049 29.049 0 004.371 3.594 29.397 29.397 0 002.426 1.464c.832.445 1.683.852 2.555 1.219.874.363 1.761.687 2.664.965.902.277 1.82.511 2.746.703a30.62 30.62 0 002.8.433 29.65 29.65 0 002.829.157v-57.856c-.95.004-1.891.051-2.836.149a28.826 28.826 0 00-5.55 1.117 28.245 28.245 0 00-5.236 2.176 28.74 28.74 0 00-4.707 3.152 28.49 28.49 0 00-2.101 1.902 30.32 30.32 0 00-1.906 2.102 29.867 29.867 0 00-1.692 2.277 29.452 29.452 0 00-1.457 2.434 28.712 28.712 0 00-1.219 2.562 29.33 29.33 0 00-.96 2.668 29.63 29.63 0 00-1.117 5.555 28.603 28.603 0 00-.145 2.836zm0 0"/></clipPath><clipPath id="V"><path d="M0 481h246v328.871H0zm0 0"/></clipPath><clipPath id="W"><path d="M.148 810.129h86.778V593.164h28.926V810.13h102.683l27.047-243.293-18.656-37.316-44.836 31.964a13.815 13.815 0 01-8.387 2.75 15.31 15.31 0 01-6.656-1.59 14.516 14.516 0 01-3.211-2.289 14.542 14.542 0 01-4.598-10.585v-67.98L71.16 509.27a99.294 99.294 0 00-7.566 2.671 98.305 98.305 0 00-7.332 3.266 100.667 100.667 0 00-13.766 8.223 100.829 100.829 0 00-12.29 10.305 100.91 100.91 0 00-5.487 5.855 100.268 100.268 0 00-13.446 19.91 99.856 99.856 0 00-3.378 7.277 99.366 99.366 0 00-2.79 7.528 97.61 97.61 0 00-2.18 7.722 101.56 101.56 0 00-1.562 7.871 101.219 101.219 0 00-1.215 15.993zm0 0"/></clipPath><linearGradient x1="24" gradientTransform="matrix(14.46282 0 0 14.46429 -72.167 -57.73)" y1="59.982" x2="24" gradientUnits="userSpaceOnUse" y2="44" id="c"><stop stop-color="#6E14CD" offset="0"/><stop stop-color="#6F14CD" offset=".031"/><stop stop-color="#6F14CC" offset=".063"/><stop stop-color="#7014CC" offset=".094"/><stop stop-color="#7114CB" offset=".125"/><stop stop-color="#7214CB" offset=".156"/><stop stop-color="#7315CA" offset=".188"/><stop stop-color="#7415CA" offset=".219"/><stop stop-color="#7415C9" offset=".25"/><stop stop-color="#7515C9" offset=".281"/><stop stop-color="#7615C8" offset=".313"/><stop stop-color="#7715C7" offset=".344"/><stop stop-color="#7815C7" offset=".375"/><stop stop-color="#7815C6" offset=".406"/><stop stop-color="#7915C6" offset=".438"/><stop stop-color="#7A16C5" offset=".469"/><stop stop-color="#7B16C5" offset=".5"/><stop stop-color="#7C16C4" offset=".531"/><stop stop-color="#7D16C4" offset=".563"/><stop stop-color="#7D16C3" offset=".594"/><stop stop-color="#7E16C3" offset=".625"/><stop stop-color="#7F16C2" offset=".656"/><stop stop-color="#8016C1" offset=".688"/><stop stop-color="#8116C1" offset=".719"/><stop stop-color="#8116C0" offset=".75"/><stop stop-color="#8217C0" offset=".781"/><stop stop-color="#8317BF" offset=".813"/><stop stop-color="#8417BF" offset=".844"/><stop stop-color="#8517BE" offset=".875"/><stop stop-color="#8617BE" offset=".906"/><stop stop-color="#8617BD" offset=".938"/><stop stop-color="#8717BC" offset=".969"/><stop stop-color="#8817BC" offset="1"/></linearGradient><linearGradient x1="36" gradientTransform="matrix(14.46282 0 0 14.46429 -72.167 -57.73)" y1="20" x2="36" gradientUnits="userSpaceOnUse" y2="16" id="f"><stop stop-color="#B01CA1" offset="0"/><stop stop-color="#B01CA1" offset=".125"/><stop stop-color="#B11CA0" offset=".25"/><stop stop-color="#B21DA0" offset=".375"/><stop stop-color="#B31D9F" offset=".5"/><stop stop-color="#B31D9F" offset=".625"/><stop stop-color="#B41D9E" offset=".75"/><stop stop-color="#B51D9E" offset=".875"/><stop stop-color="#B61D9D" offset="1"/></linearGradient><linearGradient x1="24" gradientTransform="matrix(14.46282 0 0 14.46429 -72.167 -57.73)" y1="35.88" x2="24" gradientUnits="userSpaceOnUse" y2="31.57" id="i"><stop stop-color="#9619B3" offset="0"/><stop stop-color="#9619B2" offset=".125"/><stop stop-color="#9719B2" offset=".25"/><stop stop-color="#9819B1" offset=".375"/><stop stop-color="#9919B1" offset=".5"/><stop stop-color="#9A1AB0" offset=".625"/><stop stop-color="#9B1AAF" offset=".75"/><stop stop-color="#9B1AAF" offset=".875"/><stop stop-color="#9C1AAE" offset="1"/></linearGradient><linearGradient x1="48" gradientTransform="matrix(14.46282 0 0 14.46429 -72.167 -57.73)" y1="46" x2="48" gradientUnits="userSpaceOnUse" y2="34" id="l"><stop stop-color="#8517BE" offset="0"/><stop stop-color="#8517BE" offset=".031"/><stop stop-color="#8617BD" offset=".063"/><stop stop-color="#8717BD" offset=".094"/><stop stop-color="#8717BC" offset=".125"/><stop stop-color="#8817BC" offset=".156"/><stop stop-color="#8817BC" offset=".188"/><stop stop-color="#8917BB" offset=".219"/><stop stop-color="#8A18BB" offset=".25"/><stop stop-color="#8A18BA" offset=".281"/><stop stop-color="#8B18BA" offset=".313"/><stop stop-color="#8C18B9" offset=".344"/><stop stop-color="#8C18B9" offset=".375"/><stop stop-color="#8D18B9" offset=".406"/><stop stop-color="#8D18B8" offset=".438"/><stop stop-color="#8E18B8" offset=".469"/><stop stop-color="#8F18B7" offset=".5"/><stop stop-color="#8F18B7" offset=".531"/><stop stop-color="#9018B7" offset=".563"/><stop stop-color="#9018B6" offset=".594"/><stop stop-color="#9118B6" offset=".625"/><stop stop-color="#9219B5" offset=".656"/><stop stop-color="#9219B5" offset=".688"/><stop stop-color="#9319B5" offset=".719"/><stop stop-color="#9419B4" offset=".75"/><stop stop-color="#9419B4" offset=".781"/><stop stop-color="#9519B3" offset=".813"/><stop stop-color="#9519B3" offset=".844"/><stop stop-color="#9619B2" offset=".875"/><stop stop-color="#9719B2" offset=".906"/><stop stop-color="#9719B2" offset=".938"/><stop stop-color="#9819B1" offset=".969"/><stop stop-color="#9819B1" offset="1"/></linearGradient><linearGradient x1="30.515" gradientTransform="matrix(14.46282 0 0 14.46429 -72.167 -57.73)" y1="59.982" x2="30.515" gradientUnits="userSpaceOnUse" y2="37.3" id="o"><stop stop-color="#6E14CD" offset="0"/><stop stop-color="#6F14CD" offset=".016"/><stop stop-color="#6F14CD" offset=".031"/><stop stop-color="#7014CC" offset=".047"/><stop stop-color="#7014CC" offset=".063"/><stop stop-color="#7114CC" offset=".078"/><stop stop-color="#7114CB" offset=".094"/><stop stop-color="#7215CB" offset=".109"/><stop stop-color="#7315CA" offset=".125"/><stop stop-color="#7315CA" offset=".141"/><stop stop-color="#7415CA" offset=".156"/><stop stop-color="#7415C9" offset=".172"/><stop stop-color="#7515C9" offset=".188"/><stop stop-color="#7515C8" offset=".203"/><stop stop-color="#7615C8" offset=".219"/><stop stop-color="#7715C8" offset=".234"/><stop stop-color="#7715C7" offset=".25"/><stop stop-color="#7815C7" offset=".266"/><stop stop-color="#7815C6" offset=".281"/><stop stop-color="#7915C6" offset=".297"/><stop stop-color="#7A15C6" offset=".313"/><stop stop-color="#7A16C5" offset=".328"/><stop stop-color="#7B16C5" offset=".344"/><stop stop-color="#7B16C4" offset=".359"/><stop stop-color="#7C16C4" offset=".375"/><stop stop-color="#7C16C4" offset=".391"/><stop stop-color="#7D16C3" offset=".406"/><stop stop-color="#7E16C3" offset=".422"/><stop stop-color="#7E16C2" offset=".438"/><stop stop-color="#7F16C2" offset=".453"/><stop stop-color="#7F16C2" offset=".469"/><stop stop-color="#8016C1" offset=".484"/><stop stop-color="#8016C1" offset=".5"/><stop stop-color="#8116C1" offset=".516"/><stop stop-color="#8216C0" offset=".531"/><stop stop-color="#8217C0" offset=".547"/><stop stop-color="#8317BF" offset=".563"/><stop stop-color="#8317BF" offset=".578"/><stop stop-color="#8417BF" offset=".594"/><stop stop-color="#8517BE" offset=".609"/><stop stop-color="#8517BE" offset=".625"/><stop stop-color="#8617BD" offset=".641"/><stop stop-color="#8617BD" offset=".656"/><stop stop-color="#8717BD" offset=".672"/><stop stop-color="#8717BC" offset=".688"/><stop stop-color="#8817BC" offset=".703"/><stop stop-color="#8917BB" offset=".719"/><stop stop-color="#8917BB" offset=".734"/><stop stop-color="#8A18BB" offset=".75"/><stop stop-color="#8A18BA" offset=".766"/><stop stop-color="#8B18BA" offset=".781"/><stop stop-color="#8C18B9" offset=".797"/><stop stop-color="#8C18B9" offset=".813"/><stop stop-color="#8D18B9" offset=".828"/><stop stop-color="#8D18B8" offset=".844"/><stop stop-color="#8E18B8" offset=".859"/><stop stop-color="#8E18B8" offset=".875"/><stop stop-color="#8F18B7" offset=".891"/><stop stop-color="#9018B7" offset=".906"/><stop stop-color="#9018B6" offset=".922"/><stop stop-color="#9118B6" offset=".938"/><stop stop-color="#9118B6" offset=".953"/><stop stop-color="#9219B5" offset=".969"/><stop stop-color="#9219B5" offset=".984"/><stop stop-color="#9319B4" offset="1"/></linearGradient><linearGradient x1="20.035" gradientTransform="matrix(14.46282 0 0 14.46429 -72.167 -57.73)" y1="40.06" x2="20.035" gradientUnits="userSpaceOnUse" y2="36.08" id="r"><stop stop-color="#8F18B7" offset="0"/><stop stop-color="#8F18B7" offset=".125"/><stop stop-color="#9018B6" offset=".25"/><stop stop-color="#9118B6" offset=".375"/><stop stop-color="#9219B5" offset=".5"/><stop stop-color="#9319B5" offset=".625"/><stop stop-color="#9319B4" offset=".75"/><stop stop-color="#9419B4" offset=".875"/><stop stop-color="#9519B3" offset="1"/></linearGradient><linearGradient x1="27.965" gradientTransform="matrix(14.46282 0 0 14.46429 -72.167 -57.73)" y1="40.06" x2="27.965" gradientUnits="userSpaceOnUse" y2="36.08" id="u"><stop stop-color="#8F18B7" offset="0"/><stop stop-color="#8F18B7" offset=".125"/><stop stop-color="#9018B6" offset=".25"/><stop stop-color="#9118B6" offset=".375"/><stop stop-color="#9219B5" offset=".5"/><stop stop-color="#9319B5" offset=".625"/><stop stop-color="#9319B4" offset=".75"/><stop stop-color="#9419B4" offset=".875"/><stop stop-color="#9519B3" offset="1"/></linearGradient><linearGradient x1="24" gradientTransform="matrix(14.46282 0 0 14.46429 -72.167 -57.73)" y1="42" x2="24" gradientUnits="userSpaceOnUse" y2="38.23" id="x"><stop stop-color="#8C18B9" offset="0"/><stop stop-color="#8C18B9" offset=".125"/><stop stop-color="#8D18B9" offset=".25"/><stop stop-color="#8E18B8" offset=".375"/><stop stop-color="#8E18B8" offset=".5"/><stop stop-color="#8F18B7" offset=".625"/><stop stop-color="#9018B7" offset=".75"/><stop stop-color="#9118B6" offset=".875"/><stop stop-color="#9118B5" offset="1"/></linearGradient><linearGradient x1="30.945" gradientTransform="matrix(14.46282 0 0 14.46429 -72.167 -57.73)" y1="10.18" x2="30.945" gradientUnits="userSpaceOnUse" y2="7" id="A"><stop stop-color="#C01E96" offset="0"/><stop stop-color="#C01E96" offset=".125"/><stop stop-color="#C11E96" offset=".25"/><stop stop-color="#C11F95" offset=".375"/><stop stop-color="#C21F95" offset=".5"/><stop stop-color="#C31F94" offset=".625"/><stop stop-color="#C31F94" offset=".75"/><stop stop-color="#C41F93" offset=".875"/><stop stop-color="#C51F93" offset="1"/></linearGradient><linearGradient x1="40.5" gradientTransform="matrix(14.46282 0 0 14.46429 -72.167 -57.73)" y1="59.982" x2="40.5" gradientUnits="userSpaceOnUse" y2="52" id="D"><stop stop-color="#6E14CD" offset="0"/><stop stop-color="#6F14CD" offset=".063"/><stop stop-color="#6F14CC" offset=".125"/><stop stop-color="#7014CC" offset=".188"/><stop stop-color="#7114CB" offset=".25"/><stop stop-color="#7214CB" offset=".313"/><stop stop-color="#7315CA" offset=".375"/><stop stop-color="#7415CA" offset=".438"/><stop stop-color="#7415C9" offset=".5"/><stop stop-color="#7515C9" offset=".563"/><stop stop-color="#7615C8" offset=".625"/><stop stop-color="#7715C7" offset=".688"/><stop stop-color="#7815C7" offset=".75"/><stop stop-color="#7815C6" offset=".813"/><stop stop-color="#7915C6" offset=".875"/><stop stop-color="#7A16C5" offset=".938"/><stop stop-color="#7B16C5" offset="1"/></linearGradient><linearGradient x1="48" gradientTransform="matrix(14.46282 0 0 14.46429 -72.167 -57.73)" y1="59.982" x2="48" gradientUnits="userSpaceOnUse" y2="58" id="G"><stop stop-color="#6E14CD" offset="0"/><stop stop-color="#6F14CD" offset=".25"/><stop stop-color="#6F14CC" offset=".5"/><stop stop-color="#7014CC" offset=".75"/><stop stop-color="#7114CB" offset="1"/></linearGradient><linearGradient x1="22" gradientTransform="matrix(14.46282 0 0 14.46429 -72.167 -57.73)" y1="10.18" x2="22" gradientUnits="userSpaceOnUse" y2="4" id="J"><stop stop-color="#C01E96" offset="0"/><stop stop-color="#C01E96" offset=".063"/><stop stop-color="#C11E96" offset=".125"/><stop stop-color="#C11F95" offset=".188"/><stop stop-color="#C21F95" offset=".25"/><stop stop-color="#C31F94" offset=".313"/><stop stop-color="#C31F94" offset=".375"/><stop stop-color="#C41F93" offset=".438"/><stop stop-color="#C51F93" offset=".5"/><stop stop-color="#C51F93" offset=".563"/><stop stop-color="#C61F92" offset=".625"/><stop stop-color="#C61F92" offset=".688"/><stop stop-color="#C71F91" offset=".75"/><stop stop-color="#C81F91" offset=".813"/><stop stop-color="#C81F90" offset=".875"/><stop stop-color="#C91F90" offset=".938"/><stop stop-color="#CA2090" offset="1"/></linearGradient><linearGradient x1="48" gradientTransform="matrix(14.46282 0 0 14.46429 -72.167 -57.73)" y1="50" x2="48" gradientUnits="userSpaceOnUse" y2="48" id="M"><stop stop-color="#7F16C2" offset="0"/><stop stop-color="#7F16C2" offset=".25"/><stop stop-color="#8016C1" offset=".5"/><stop stop-color="#8116C1" offset=".75"/><stop stop-color="#8116C0" offset="1"/></linearGradient><linearGradient x1="48" gradientTransform="matrix(14.46282 0 0 14.46429 -72.167 -57.73)" y1="56" x2="48" gradientUnits="userSpaceOnUse" y2="52" id="O"><stop stop-color="#7515C9" offset="0"/><stop stop-color="#7515C9" offset=".125"/><stop stop-color="#7615C8" offset=".25"/><stop stop-color="#7715C7" offset=".375"/><stop stop-color="#7815C7" offset=".5"/><stop stop-color="#7815C6" offset=".625"/><stop stop-color="#7915C6" offset=".75"/><stop stop-color="#7A16C5" offset=".875"/><stop stop-color="#7B16C5" offset="1"/></linearGradient><linearGradient x1="24" gradientTransform="matrix(14.46282 0 0 14.46429 -72.167 -57.73)" y1="30" x2="24" gradientUnits="userSpaceOnUse" y2="12" id="R"><stop stop-color="#9F1AAC" offset="0"/><stop stop-color="#A01AAC" offset=".031"/><stop stop-color="#A11AAB" offset=".063"/><stop stop-color="#A21BAB" offset=".094"/><stop stop-color="#A31BAA" offset=".125"/><stop stop-color="#A31BA9" offset=".156"/><stop stop-color="#A41BA9" offset=".188"/><stop stop-color="#A51BA8" offset=".219"/><stop stop-color="#A61BA7" offset=".25"/><stop stop-color="#A71BA7" offset=".281"/><stop stop-color="#A81BA6" offset=".313"/><stop stop-color="#A91BA6" offset=".344"/><stop stop-color="#AA1CA5" offset=".375"/><stop stop-color="#AB1CA4" offset=".406"/><stop stop-color="#AC1CA4" offset=".438"/><stop stop-color="#AD1CA3" offset=".469"/><stop stop-color="#AE1CA3" offset=".5"/><stop stop-color="#AF1CA2" offset=".531"/><stop stop-color="#AF1CA1" offset=".563"/><stop stop-color="#B01CA1" offset=".594"/><stop stop-color="#B11DA0" offset=".625"/><stop stop-color="#B21D9F" offset=".656"/><stop stop-color="#B31D9F" offset=".688"/><stop stop-color="#B41D9E" offset=".719"/><stop stop-color="#B51D9E" offset=".75"/><stop stop-color="#B61D9D" offset=".781"/><stop stop-color="#B71D9C" offset=".813"/><stop stop-color="#B81D9C" offset=".844"/><stop stop-color="#B91D9B" offset=".875"/><stop stop-color="#BA1E9A" offset=".906"/><stop stop-color="#BB1E9A" offset=".938"/><stop stop-color="#BB1E99" offset=".969"/><stop stop-color="#BC1E99" offset="1"/></linearGradient><linearGradient x1="12" gradientTransform="matrix(14.46282 0 0 14.46429 -72.167 -57.73)" y1="20" x2="12" gradientUnits="userSpaceOnUse" y2="16" id="U"><stop stop-color="#B01CA1" offset="0"/><stop stop-color="#B01CA1" offset=".125"/><stop stop-color="#B11CA0" offset=".25"/><stop stop-color="#B21DA0" offset=".375"/><stop stop-color="#B31D9F" offset=".5"/><stop stop-color="#B31D9F" offset=".625"/><stop stop-color="#B41D9E" offset=".75"/><stop stop-color="#B51D9E" offset=".875"/><stop stop-color="#B61D9D" offset="1"/></linearGradient><linearGradient x1="13.485" gradientTransform="matrix(14.46282 0 0 14.46429 -72.167 -57.73)" y1="59.982" x2="13.485" gradientUnits="userSpaceOnUse" y2="37.3" id="X"><stop stop-color="#6E14CD" offset="0"/><stop stop-color="#6F14CD" offset=".016"/><stop stop-color="#6F14CD" offset=".031"/><stop stop-color="#7014CC" offset=".047"/><stop stop-color="#7014CC" offset=".063"/><stop stop-color="#7114CC" offset=".078"/><stop stop-color="#7114CB" offset=".094"/><stop stop-color="#7215CB" offset=".109"/><stop stop-color="#7315CA" offset=".125"/><stop stop-color="#7315CA" offset=".141"/><stop stop-color="#7415CA" offset=".156"/><stop stop-color="#7415C9" offset=".172"/><stop stop-color="#7515C9" offset=".188"/><stop stop-color="#7515C8" offset=".203"/><stop stop-color="#7615C8" offset=".219"/><stop stop-color="#7715C8" offset=".234"/><stop stop-color="#7715C7" offset=".25"/><stop stop-color="#7815C7" offset=".266"/><stop stop-color="#7815C6" offset=".281"/><stop stop-color="#7915C6" offset=".297"/><stop stop-color="#7A15C6" offset=".313"/><stop stop-color="#7A16C5" offset=".328"/><stop stop-color="#7B16C5" offset=".344"/><stop stop-color="#7B16C4" offset=".359"/><stop stop-color="#7C16C4" offset=".375"/><stop stop-color="#7C16C4" offset=".391"/><stop stop-color="#7D16C3" offset=".406"/><stop stop-color="#7E16C3" offset=".422"/><stop stop-color="#7E16C2" offset=".438"/><stop stop-color="#7F16C2" offset=".453"/><stop stop-color="#7F16C2" offset=".469"/><stop stop-color="#8016C1" offset=".484"/><stop stop-color="#8016C1" offset=".5"/><stop stop-color="#8116C1" offset=".516"/><stop stop-color="#8216C0" offset=".531"/><stop stop-color="#8217C0" offset=".547"/><stop stop-color="#8317BF" offset=".563"/><stop stop-color="#8317BF" offset=".578"/><stop stop-color="#8417BF" offset=".594"/><stop stop-color="#8517BE" offset=".609"/><stop stop-color="#8517BE" offset=".625"/><stop stop-color="#8617BD" offset=".641"/><stop stop-color="#8617BD" offset=".656"/><stop stop-color="#8717BD" offset=".672"/><stop stop-color="#8717BC" offset=".688"/><stop stop-color="#8817BC" offset=".703"/><stop stop-color="#8917BB" offset=".719"/><stop stop-color="#8917BB" offset=".734"/><stop stop-color="#8A18BB" offset=".75"/><stop stop-color="#8A18BA" offset=".766"/><stop stop-color="#8B18BA" offset=".781"/><stop stop-color="#8C18B9" offset=".797"/><stop stop-color="#8C18B9" offset=".813"/><stop stop-color="#8D18B9" offset=".828"/><stop stop-color="#8D18B8" offset=".844"/><stop stop-color="#8E18B8" offset=".859"/><stop stop-color="#8E18B8" offset=".875"/><stop stop-color="#8F18B7" offset=".891"/><stop stop-color="#9018B7" offset=".906"/><stop stop-color="#9018B6" offset=".922"/><stop stop-color="#9118B6" offset=".938"/><stop stop-color="#9118B6" offset=".953"/><stop stop-color="#9219B5" offset=".969"/><stop stop-color="#9219B5" offset=".984"/><stop stop-color="#9319B4" offset="1"/></linearGradient></defs><g clip-path="url(#a)"><g clip-path="url(#b)"><path fill="url(#c)" d="M247.75 578.7v231.17h54.383V578.7zm0 0"/></g></g><g clip-path="url(#d)"><g clip-path="url(#e)"><path fill="url(#f)" d="M434.031 173.7v57.855h28.926v-57.856zm0 0"/></g></g><g clip-path="url(#g)"><g clip-path="url(#h)"><path fill="url(#i)" d="M231.55 398.906v62.344h86.778v-62.344zm0 0"/></g></g><g clip-path="url(#j)"><g clip-path="url(#k)"><path fill="url(#l)" d="M448.496 434.055v173.574H795.5V434.055zm0 0"/></g></g><g clip-path="url(#m)"><g clip-path="url(#n)"><path fill="url(#o)" d="M304.3 481.79v328.08h129.731V481.79zm0 0"/></g></g><g clip-path="url(#p)"><g clip-path="url(#q)"><path fill="url(#r)" d="M188.164 464.14v57.57h58.863v-57.57zm0 0"/></g></g><g clip-path="url(#s)"><g clip-path="url(#t)"><path fill="url(#u)" d="M302.855 464.14v57.57h58.864v-57.57zm0 0"/></g></g><g clip-path="url(#v)"><g clip-path="url(#w)"><path fill="url(#x)" d="M250.79 495.238v54.532h48.304v-54.532zm0 0"/></g></g><g clip-path="url(#y)"><g clip-path="url(#z)"><path fill="url(#A)" d="M345.664 43.52v45.996h59.441V43.52zm0 0"/></g></g><g clip-path="url(#B)"><g clip-path="url(#C)"><path fill="url(#D)" d="M462.957 694.414v115.457h101.242V694.414zm0 0"/></g></g><g clip-path="url(#E)"><g clip-path="url(#F)"><path fill="url(#G)" d="M535.273 781.2v28.671h173.551V781.2zm0 0"/></g></g><g clip-path="url(#H)"><g clip-path="url(#I)"><path fill="url(#J)" d="M144.777.129v89.387h202.477V.129zm0 0"/></g></g><g clip-path="url(#K)"><g clip-path="url(#L)"><path fill="url(#M)" d="M448.496 636.555v28.93H795.5v-28.93zm0 0"/></g></g><g clip-path="url(#N)"><path fill="url(#O)" d="M593.125 694.414v57.856h57.848v-57.856zm0 0"/></g><g clip-path="url(#P)"><g clip-path="url(#Q)"><path fill="url(#R)" d="M144.777 115.84V376.2h260.328V115.84zm0 0"/></g></g><g clip-path="url(#S)"><g clip-path="url(#T)"><path fill="url(#U)" d="M86.926 173.7v57.855h28.926v-57.856zm0 0"/></g></g><g clip-path="url(#V)"><g clip-path="url(#W)"><path fill="url(#X)" d="M.137 481.79v328.08h245.445V481.79zm0 0"/></g></g></svg>