<svg xmlns="http://www.w3.org/2000/svg" width="101" viewBox="0 0 75.75 75.75" height="101" version="1.0"><defs><clipPath id="a"><path d="M5.27 10H23v16H5.27zm0 0"/></clipPath><clipPath id="b"><path d="M5.27 9H24v17H5.27zm0 0"/></clipPath><clipPath id="c"><path d="M55 10h15.52v15H55zm0 0"/></clipPath><clipPath id="d"><path d="M17 1h51v66.5H17zm0 0"/></clipPath></defs><path fill="#ffc05a" d="M30.484 45.113c.621-3.66 2.094-5.68 4.641-6.367v14.395l-3.945-2.325a2.102 2.102 0 01-1.035-1.867c.035-1.437.144-2.715.34-3.836zm15.891 3.837a2.102 2.102 0 01-1.035 1.866l-3.945 2.325V38.746c2.546.688 4.02 2.707 4.64 6.367.195 1.121.305 2.399.34 3.836zm20.418-9.41c.398 1.366-.203 2.347-.203 2.347-1.067 1.86-5.781 2.496-7.172 1.605 0 0-.313-.187-.61-.554v-.004a2.235 2.235 0 01-.523-1.426c0-1.192.637-2.016.711-2.106H59c.969.082 1.297.723 3.133.723 1.457 0 2.652-1.23 2.668-2.977 0 0 1.484.66 1.992 2.391zm0 0"/><path fill="#b8d3cf" d="M41.395 53.14v13.844h-6.27V45.098s.988 2.004 3.137 2.004c2.144 0 3.133-2.004 3.133-2.004zm0 0"/><path fill="#3fa07f" d="M25.719 66.984h-7.614c1.954-12.597 7.57-18.836 12.38-21.87-.196 1.12-.305 2.398-.34 3.835a2.102 2.102 0 001.035 1.867l3.945 2.325v13.843zM66.59 41.887s.77 8.156-5.102 11.5c-5.183 2.945-10.687 1.066-10.687 1.066v12.531h-9.406V53.141l3.945-2.325a2.102 2.102 0 001.035-1.867c-.035-1.437-.145-2.715-.34-3.836 0 0 7.238 2.973 10.235 1.989 2.406-.786 2.535-4.012 2.539-4.164.296.367.609.554.609.554 1.39.89 6.105.254 7.172-1.605zm0 0"/><g clip-path="url(#a)"><path fill="#c3ddda" d="M22.55 23.652l-5.34-.445c-1.202 1.324-2.847 2.148-4.667 2.148-3.688 0-6.684-3.382-6.684-7.558 0-4.168 2.996-7.55 6.684-7.55 3.695 0 6.691 3.382 6.691 7.55 0 .808-.117 1.582-.324 2.308zm0 0"/></g><path fill="#c3ddda" d="M64.203 11.316c3.164 0 5.734 2.907 5.734 6.48 0 3.583-2.57 6.49-5.734 6.49-1.558 0-2.969-.708-4.004-1.849l-4.59.387 3.125-3.047a7.46 7.46 0 01-.27-1.98c0-3.574 2.563-6.48 5.74-6.48zm0 0"/><path fill="#1ea6bc" d="M45.852 18.375a4.715 4.715 0 010 9.43 4.711 4.711 0 01-4.704-4.72 4.71 4.71 0 014.704-4.71zm0 0"/><path fill="#524956" d="M52.555 20.828a7.07 7.07 0 01-.485 5.633 7.114 7.114 0 01-1.773 2.14 7.073 7.073 0 01-4.445 1.57c-3.903 0-7.07-3.171-7.07-7.085 0-1.996.827-3.8 2.156-5.09a7.034 7.034 0 014.718-1.988c.067-.008.13-.008.196-.008a7.073 7.073 0 016.703 4.828zm-1.992 2.258a4.714 4.714 0 00-4.711-4.711 4.71 4.71 0 00-4.704 4.71c0 2.61 2.11 4.72 4.704 4.72 2.597 0 4.71-2.11 4.71-4.72zm0 0"/><path fill="#504256" d="M54.102 28.234l-1.914 2.196-1.891-1.828a7.114 7.114 0 001.773-2.141zm0 0"/><path fill="#f9b132" d="M27.547 15.063c-1.496 2.628-2.024 5.53-2.117 8.546-1.375-1.222-2.078-2.953-1.567-5.613-.91.766-1.918.926-2.988.711 2.832-2.527 2.25-8.273 5.29-11.648 3.034-3.375 6.87-2.977 6.87-2.977s4.88-3.773 12.02-1.035c6.625 2.543 6.11 8.398 11.215 13.176-.946.465-2.028.398-3.235-.215.52 1.765.223 3.34-.476 4.82h-.004A7.073 7.073 0 0045.852 16c-.067 0-.13 0-.196.008a7.034 7.034 0 00-4.718 1.988c-3.524-.723-5.934-2.828-7.426-6.078-1.075 3.113-2.754 5.25-5.266 6.074-.59-.847-.75-1.855-.7-2.93zm0 0"/><path fill="#fec4b9" d="M26.875 30.875c-1.414.168-2.887-.84-3.496-2.504-.707-1.93.004-3.996 1.586-4.629.152-.058.308-.101.465-.133.273 2.782.773 5.336 1.445 7.266zm0 0"/><path fill="#ffd7d2" d="M56.695 27.805c.703.613.77 1.68.164 2.379l-1.734 1.988-.008.004-.746.86c-.328.378-.8.577-1.266.577-.234 0-.472-.054-.695-.152a1.567 1.567 0 01-.406-.262 1.694 1.694 0 01-.16-2.379l.343-.39 1.915-2.196.226-.265c.332-.38.8-.578 1.266-.578.39 0 .785.136 1.101.414zm0 0"/><path fill="#ffd7d2" d="M59.316 29.922c.696.605.766 1.676.16 2.371l-1.847 2.121a1.677 1.677 0 01-1.622.504 1.654 1.654 0 01-.722-.367 1.701 1.701 0 01-.168-2.375l.008-.004 1.734-1.988.09-.102a1.679 1.679 0 012.367-.16zm0 0"/><path fill="#ffd7d2" d="M55.117 32.176a1.702 1.702 0 00.168 2.375c.215.187.465.308.723.367.328.672.375 1.312-.016 1.762-.52.593-1.574.62-2.5.074l-.004-.004a3.29 3.29 0 01-.46-.336c-.997-.875-1.223-2.262-.618-2.953.223.098.461.152.695.152.465 0 .938-.199 1.266-.578zm6.977.226a1.71 1.71 0 01-.086 2.106l-1.961 2.246a1.676 1.676 0 01-2.367.164 1.698 1.698 0 01-.164-2.379l.113-.125 1.848-2.121a1.68 1.68 0 011.265-.578 1.669 1.669 0 011.235.547c.02.027.062.074.117.14zm0 0"/><path fill="#ffd7d2" d="M62.094 32.402c.582.688 2.718 3.332 2.707 4.746-.016 1.747-1.211 2.977-2.668 2.977-1.836 0-2.164-.64-3.133-.723h-.004a3.146 3.146 0 00-.2-.007c-1.132 0-1.222.601-2.937.285-1.66-.297-2.328-2.77-2.367-2.926.926.547 1.98.52 2.5-.074.39-.45.344-1.09.016-1.762.125.031.254.047.379.047.457 0 .918-.192 1.242-.55l-.113.124a1.698 1.698 0 00.164 2.379 1.676 1.676 0 002.367-.164l1.96-2.246c.52-.61.536-1.48.087-2.106zm-20.699 6.344v6.352s-.989 2.004-3.133 2.004c-2.149 0-3.137-2.004-3.137-2.004v-6.352c.996.328 2.055.524 3.137.524 1.082 0 2.136-.196 3.133-.524zm0 0"/><path fill="#f7b6ad" d="M41.395 38.746v3.234a15.31 15.31 0 01-6.27-1.48v-1.754c.996.328 2.055.524 3.137.524 1.082 0 2.136-.196 3.133-.524zm0 0"/><path fill="#ffd7d2" d="M50.297 28.602c-.426 1.82-.965 3.351-1.586 4.382-1.207 2.016-3.961 4.657-7.316 5.762-.997.328-2.051.524-3.133.524-1.082 0-2.14-.196-3.137-.524-3.355-1.105-6.11-3.746-7.316-5.762-.34-.566-.653-1.285-.934-2.109-.672-1.93-1.172-4.484-1.445-7.266.093-3.015.62-5.918 2.117-8.547-.05 1.075.11 2.083.7 2.93 2.51-.824 4.19-2.96 5.265-6.074 1.492 3.25 3.902 5.355 7.425 6.078a7.075 7.075 0 00-2.156 5.09c0 3.914 3.168 7.086 7.07 7.086 1.68 0 3.227-.59 4.446-1.57zm0 0"/><path fill="#349370" d="M25.719 66.984v-8.168a.65.65 0 00-1.29-.117c-.687 3.723-1.41 7.219-2.503 8.285zm25.081 0v-9.347a.667.667 0 00-.663-.668.667.667 0 00-.66.59c-.493 4.007-1.118 7.699-2.598 9.425zm0 0"/><path fill="#3a322b" d="M33.988 18.832a.523.523 0 10.18-1.031c-.074-.012-1.844-.309-3.148.61a.526.526 0 00.605.86c.938-.666 2.336-.447 2.363-.439zm1.938 4.746a.523.523 0 00-.27-.476l-3.336-1.84a.521.521 0 00-.71.207.521.521 0 00.206.71l2.422 1.337-2.386 1.093a.523.523 0 00.433.953l3.336-1.527a.522.522 0 00.305-.457zm.472 2.363a2.637 2.637 0 00-1.785.004.519.519 0 00-.293.676.521.521 0 00.672.297c.008 0 .52-.191 1.043.004.438.164.817.707.922.902a.523.523 0 10.918-.5c-.059-.11-.59-1.05-1.477-1.383zm9.454 2.387c2.886 0 5.23-2.351 5.23-5.242 0-2.887-2.344-5.238-5.23-5.238-2.883 0-5.227 2.351-5.227 5.238 0 2.89 2.348 5.242 5.227 5.242zm0-9.433a4.196 4.196 0 014.187 4.19 4.197 4.197 0 01-4.187 4.196c-2.305 0-4.18-1.883-4.18-4.195a4.191 4.191 0 014.18-4.191zm0 0"/><g clip-path="url(#b)"><path fill="#3a322b" d="M23.027 23.867a.52.52 0 00-.109-.59l-3.422-3.332a9.023 9.023 0 00.258-2.144c0-4.453-3.234-8.078-7.207-8.078-3.977 0-7.211 3.625-7.211 8.078 0 4.453 3.234 8.078 7.21 8.078 1.817 0 3.54-.754 4.872-2.129l5.09.422c.215.02.43-.102.52-.305zm-5.773-1.183a.538.538 0 00-.43.168c-1.156 1.277-2.676 1.98-4.277 1.98-3.399 0-6.164-3.156-6.164-7.031 0-3.88 2.765-7.031 6.164-7.031 3.398 0 6.16 3.152 6.16 7.03 0 .731-.098 1.462-.297 2.165a.516.516 0 00.137.515l2.598 2.528zm0 0"/></g><path fill="#3a322b" d="M12.164 12.352a2.933 2.933 0 00-2.926 2.933.523.523 0 001.047 0c0-1.039.844-1.883 1.88-1.883a1.883 1.883 0 010 3.766.523.523 0 00-.524.523v3a.523.523 0 001.046 0v-2.523a2.933 2.933 0 00-.523-5.816zm.786 10.261a.755.755 0 01-.231.555.755.755 0 01-.555.23.761.761 0 01-.555-.23.755.755 0 01-.23-.555c0-.218.078-.402.23-.554a.761.761 0 01.555-.23c.219 0 .402.077.555.23.152.152.23.336.23.554zm0 0"/><g clip-path="url(#c)"><path fill="#3a322b" d="M64.203 10.793c-3.453 0-6.262 3.145-6.262 7.008 0 .613.07 1.222.215 1.816l-2.91 2.832a.52.52 0 00-.11.59c.09.203.298.324.52.305l4.332-.36c1.157 1.176 2.645 1.825 4.215 1.825 3.45 0 6.258-3.145 6.258-7.008s-2.809-7.008-6.258-7.008zm0 12.969c-1.355 0-2.64-.594-3.621-1.676a.518.518 0 00-.387-.172c-.011 0-.027.004-.043.004l-3.129.262 2.079-2.024a.525.525 0 00.136-.52 6.783 6.783 0 01-.254-1.835c0-3.29 2.34-5.961 5.22-5.961 2.874 0 5.214 2.672 5.214 5.96 0 3.286-2.34 5.962-5.215 5.962zm0 0"/></g><path fill="#3a322b" d="M64.527 13.05a2.587 2.587 0 00-2.582 2.59c0 .29.235.524.524.524a.52.52 0 00.52-.523c0-.852.69-1.543 1.538-1.543.852 0 1.54.691 1.54 1.543a1.54 1.54 0 01-1.54 1.543.523.523 0 00-.523.523v2.574a.523.523 0 001.047 0v-2.105a2.59 2.59 0 00-.523-5.125zm.676 8.884a.652.652 0 01-.2.476.658.658 0 01-.476.195.664.664 0 01-.672-.671.667.667 0 01.672-.676c.188 0 .344.066.477.195.133.133.2.293.2.48zm0 0"/><g clip-path="url(#d)"><path fill="#3a322b" d="M67.293 39.39c-.434-1.48-1.488-2.265-1.996-2.57-.246-1.636-2.215-4.062-2.805-4.761l-.015-.016a2.609 2.609 0 00-.133-.152c-.012-.016-.032-.024-.043-.04-.04-.035-.07-.078-.11-.113a2.19 2.19 0 00-1.789-.508 2.204 2.204 0 00-.742-1.707 2.194 2.194 0 00-1.87-.492 2.182 2.182 0 00-.747-1.617 2.193 2.193 0 00-2.98.094l-1.348-1.184a7.557 7.557 0 00.734-3.238c0-.773-.117-1.523-.336-2.227.614-1.37.828-2.691.64-3.996.993.297 1.915.239 2.747-.172a.523.523 0 00.285-.394.52.52 0 00-.16-.461c-2.031-1.899-3.145-3.977-4.223-5.984-1.578-2.946-3.07-5.727-7.16-7.293-6.683-2.563-11.418.336-12.36.988-.882-.04-4.3.043-7.109 3.164-1.597 1.773-2.226 4.094-2.832 6.34-.574 2.11-1.113 4.101-2.414 5.265a.527.527 0 00.246.907c.883.175 1.692.109 2.422-.203-.133 1.757.297 3.195 1.293 4.37-1.64.852-2.36 3.09-1.601 5.16.633 1.72 2.078 2.837 3.62 2.86.263.715.548 1.34.852 1.848 1.032 1.719 3.352 4.12 6.332 5.484-1.91.992-3.105 2.946-3.675 6.047-4.614 2.984-10.43 9.23-12.426 22.117-.004.012 0 .028 0 .04 0 .015-.008.027-.008.038 0 .024.012.043.012.063a.46.46 0 00.023.105c.008.032.024.059.04.09.019.028.034.055.054.082a.589.589 0 00.074.067c.027.02.05.039.082.054a.416.416 0 00.098.035c.02.008.039.02.058.024.028.004.055.004.082.008h32.7a.525.525 0 00.523-.528l-.004-11.836c.75.184 2.047.43 3.637.43 1.977 0 4.406-.379 6.785-1.734 5.711-3.254 5.457-10.649 5.379-11.848.176-.371.535-1.348.168-2.605zm-1.004.294c.324 1.113-.125 1.902-.152 1.941-.348.61-1.332 1.16-2.633 1.477-1.688.414-3.258.296-3.813-.055-.039-.024-.886-.559-.882-1.535 0-.696.261-1.242.433-1.535.176.043.34.109.531.191.512.215 1.141.484 2.36.484 1.52 0 2.73-1.074 3.082-2.605.387.324.844.848 1.074 1.637zm-30.64-.243c.84.223 1.71.352 2.613.352.898 0 1.773-.129 2.613-.352l-.004 3.489h.004v2.035c-.215.367-1.063 1.613-2.613 1.613-1.559 0-2.403-1.246-2.617-1.613v-2.04zm-.004 7.149c.59.535 1.449 1.035 2.617 1.035 1.164 0 2.023-.5 2.613-1.035l-.004 19.87h-5.223zm6.273-3.664V39.48c2.574 1.067 3.797 4.036 3.934 9.485a1.57 1.57 0 01-.774 1.398l-3.16 1.864zm.91-4.184c2.98-1.363 5.3-3.765 6.332-5.488.531-.883 1.016-2.137 1.422-3.649l.887.856-.02.016a2.215 2.215 0 00-.535 1.601c.04.59.305 1.125.746 1.512.02.015.04.027.059.043-.16.39-.207.851-.114 1.336a3.31 3.31 0 001.083 1.84c.113.097.23.175.351.257.2.66.984 2.813 2.73 3.133 1.165.211 1.7.035 2.172-.12l.11-.036c-.156.395-.285.89-.29 1.465 0 .664.235 1.195.512 1.586-.054.64-.378 2.922-2.168 3.511-2.214.727-7.457-1.02-9.609-1.875-.574-3.07-1.766-5-3.668-5.988zm3.024-22.215c3.613 0 6.55 2.942 6.55 6.559 0 3.621-2.937 6.562-6.55 6.562-3.61 0-6.547-2.941-6.547-6.562 0-3.617 2.937-6.559 6.547-6.559zm8.406 17.27a2.183 2.183 0 001.367 1.55c.129.337.2.727-.027.989-.38.437-1.41.394-2.223-.316a2.276 2.276 0 01-.742-1.25 1.383 1.383 0 01.027-.688c.149.031.297.05.45.05a2.18 2.18 0 001.148-.335zm7.875 5.808c-1.004 0-1.485-.203-1.95-.402-.343-.144-.703-.289-1.195-.32-.011 0-.023-.004-.035-.004-.05-.004-.098-.012-.156-.012-.531 0-.879.117-1.184.215-.402.137-.754.25-1.66.086-.715-.133-1.246-.867-1.578-1.55.156.023.313.046.465.046.61 0 1.172-.21 1.543-.637.12-.14.258-.355.336-.64.125.351.328.672.617.922a2.2 2.2 0 003.105-.211l1.961-2.246c.176-.207.309-.442.399-.688.781 1.094 1.48 2.3 1.476 2.977-.007 1.406-.93 2.464-2.144 2.464zm-1.39-7.363c.269 0 .542.094.76.285a.87.87 0 01.134.145l.031.035a1.16 1.16 0 01-.055 1.453l-1.957 2.25a1.157 1.157 0 11-1.742-1.523l.133-.153v-.004l1.824-2.093a1.15 1.15 0 01.871-.395zm-2.61-2.21h.082c.281 0 .547.097.758.28.48.422.53 1.157.109 1.637l-1.82 2.094a1.15 1.15 0 01-.797.39 1.132 1.132 0 01-.836-.28 1.14 1.14 0 01-.39-.794 1.13 1.13 0 01.28-.84l1.82-2.093c.204-.235.485-.371.794-.395zm-2.535-2.114c.27 0 .539.094.757.285a1.17 1.17 0 01.114 1.633l-1.375 1.574-1.114 1.281c-.203.23-.484.371-.792.391a1.12 1.12 0 01-.84-.281 1.16 1.16 0 01-.11-1.633l2.485-2.855c.23-.262.55-.395.875-.395zm-2.239.367l-1.203 1.383-1.097-1.055a7.53 7.53 0 001.136-1.351zM24.125 17.543a.531.531 0 00-.602.05c-.464.4-.968.618-1.539.669.989-1.332 1.465-3.094 1.965-4.938C24.527 11.2 25.121 9 26.551 7.41c2.812-3.125 6.289-2.82 6.433-2.808a.508.508 0 00.371-.106c.047-.035 4.727-3.562 11.516-.957 3.723 1.426 5.063 3.922 6.613 6.809 1 1.87 2.036 3.8 3.797 5.636-.601.079-1.27-.07-2.015-.445a.522.522 0 00-.734.617c.327 1.098.327 2.172-.005 3.301a7.6 7.6 0 00-6.507-3.969c-.586-1.558-1.672-2.625-3.247-3.152a.524.524 0 00-.332.992c1.168.395 1.98 1.121 2.477 2.215a7.54 7.54 0 00-4.117 1.883c-3.078-.7-5.281-2.516-6.727-5.547.188-.566.36-1.164.512-1.8a.523.523 0 00-1.016-.246c-.98 4.07-2.648 6.538-5.097 7.519-.317-.606-.446-1.336-.403-2.262a.521.521 0 00-.379-.527.514.514 0 00-.597.242c-1.207 2.129-1.89 4.539-2.117 7.496-.743-1.106-.938-2.469-.602-4.207a.523.523 0 00-.25-.551zm-.258 10.645c-.578-1.579-.074-3.25 1.113-3.86.258 2.27.657 4.313 1.16 5.985-.956-.192-1.855-.993-2.273-2.125zm4.39 4.53c-1.05-1.753-1.91-5.163-2.304-9.124.082-2.59.485-4.742 1.254-6.63.133.493.336.93.613 1.325.133.188.371.27.59.2 2.281-.75 3.988-2.493 5.172-5.29 1.477 2.602 3.617 4.313 6.383 5.094a7.559 7.559 0 00-1.703 4.793c0 4.2 3.406 7.61 7.59 7.61 1.3 0 2.523-.329 3.593-.907-.351 1.215-.754 2.211-1.183 2.93-1.395 2.328-5.344 6.027-10 6.027-4.66 0-8.61-3.7-10.004-6.027zm6.345 6.762v12.747l-3.16-1.864a1.57 1.57 0 01-.774-1.398c.14-5.45 1.363-8.418 3.934-9.485zm-4.79 6.711a31.468 31.468 0 00-.19 2.746 2.636 2.636 0 001.292 2.333l3.688 2.171.003 13.02h-8.363v-8.293a.523.523 0 00-1.047 0v8.293h-6.472c1.902-11.387 6.875-17.266 11.09-20.27zm31.418 6.743c-4.906 2.789-10.207 1.046-10.261 1.027-.028-.008-.055-.008-.082-.012-.028-.004-.055-.015-.086-.015-.008 0-.016.004-.02.004-.035 0-.062.011-.097.019-.036.008-.07.012-.102.027-.027.012-.047.032-.07.047-.032.024-.063.043-.09.07-.02.02-.031.044-.047.067-.023.035-.047.066-.059.105a.055.055 0 00-.011.016c-.008.023-.004.05-.008.078-.008.031-.02.059-.02.09l.004 12.004h-8.367l.004-13.02 3.687-2.171a2.636 2.636 0 001.293-2.333 30.832 30.832 0 00-.218-3.015c1.652.621 5.39 1.902 8.101 1.902.617 0 1.18-.07 1.653-.222 1.882-.622 2.539-2.461 2.77-3.633.534.312 1.32.441 2.167.441.809 0 1.66-.113 2.383-.289.625-.152 1.574-.46 2.34-.992-.047 2.316-.656 7.406-4.864 9.805zm0 0"/></g></svg>