<svg xmlns="http://www.w3.org/2000/svg" xmlns:xlink="http://www.w3.org/1999/xlink" width="101" zoomAndPan="magnify" viewBox="0 0 75.75 75.749998" height="101" preserveAspectRatio="xMidYMid meet" version="1.0"><defs><clipPath id="id1"><path d="M 5.269531 10 L 23 10 L 23 26 L 5.269531 26 Z M 5.269531 10 " clip-rule="nonzero"/></clipPath><clipPath id="id2"><path d="M 5.269531 9 L 24 9 L 24 26 L 5.269531 26 Z M 5.269531 9 " clip-rule="nonzero"/></clipPath><clipPath id="id3"><path d="M 55 10 L 70.519531 10 L 70.519531 25 L 55 25 Z M 55 10 " clip-rule="nonzero"/></clipPath><clipPath id="id4"><path d="M 17 1 L 68 1 L 68 67.5 L 17 67.5 Z M 17 1 " clip-rule="nonzero"/></clipPath></defs><path fill="#ffc05a" d="M 30.484375 45.113281 C 31.105469 41.453125 32.578125 39.433594 35.125 38.746094 L 35.125 53.140625 L 31.179688 50.816406 C 30.519531 50.433594 30.128906 49.714844 30.144531 48.949219 C 30.179688 47.511719 30.289062 46.234375 30.484375 45.113281 Z M 30.484375 45.113281 " fill-opacity="1" fill-rule="nonzero"/><path fill="#ffc05a" d="M 46.375 48.949219 C 46.390625 49.714844 46 50.433594 45.339844 50.816406 L 41.394531 53.140625 L 41.394531 38.746094 C 43.941406 39.433594 45.414062 41.453125 46.035156 45.113281 C 46.230469 46.234375 46.339844 47.511719 46.375 48.949219 Z M 46.375 48.949219 " fill-opacity="1" fill-rule="nonzero"/><path fill="#ffc05a" d="M 66.792969 39.539062 C 67.191406 40.90625 66.589844 41.886719 66.589844 41.886719 C 65.523438 43.746094 60.808594 44.382812 59.417969 43.492188 C 59.417969 43.492188 59.105469 43.304688 58.808594 42.9375 C 58.808594 42.933594 58.808594 42.933594 58.808594 42.933594 C 58.535156 42.597656 58.285156 42.121094 58.285156 41.507812 C 58.285156 40.316406 58.921875 39.492188 58.996094 39.402344 C 59 39.402344 59 39.402344 59 39.402344 C 59.96875 39.484375 60.296875 40.125 62.132812 40.125 C 63.589844 40.125 64.785156 38.894531 64.800781 37.148438 C 64.800781 37.148438 66.285156 37.808594 66.792969 39.539062 Z M 66.792969 39.539062 " fill-opacity="1" fill-rule="nonzero"/><path fill="#b8d3cf" d="M 41.394531 53.140625 L 41.394531 66.984375 L 35.125 66.984375 L 35.125 45.097656 C 35.125 45.097656 36.113281 47.101562 38.261719 47.101562 C 40.40625 47.101562 41.394531 45.097656 41.394531 45.097656 Z M 41.394531 53.140625 " fill-opacity="1" fill-rule="nonzero"/><path fill="#3fa07f" d="M 25.71875 66.984375 L 18.105469 66.984375 C 20.058594 54.386719 25.675781 48.148438 30.484375 45.113281 C 30.289062 46.234375 30.179688 47.511719 30.144531 48.949219 C 30.128906 49.714844 30.519531 50.433594 31.179688 50.816406 L 35.125 53.140625 L 35.125 66.984375 Z M 25.71875 66.984375 " fill-opacity="1" fill-rule="nonzero"/><path fill="#3fa07f" d="M 66.589844 41.886719 C 66.589844 41.886719 67.359375 50.042969 61.488281 53.386719 C 56.304688 56.332031 50.800781 54.453125 50.800781 54.453125 L 50.800781 66.984375 L 41.394531 66.984375 L 41.394531 53.140625 L 45.339844 50.816406 C 46 50.433594 46.390625 49.714844 46.375 48.949219 C 46.339844 47.511719 46.230469 46.234375 46.035156 45.113281 C 46.035156 45.113281 53.273438 48.085938 56.269531 47.101562 C 58.675781 46.316406 58.804688 43.089844 58.808594 42.9375 C 59.105469 43.304688 59.417969 43.492188 59.417969 43.492188 C 60.808594 44.382812 65.523438 43.746094 66.589844 41.886719 Z M 66.589844 41.886719 " fill-opacity="1" fill-rule="nonzero"/><g clip-path="url(#id1)"><path fill="#c3ddda" d="M 22.550781 23.652344 L 17.210938 23.207031 C 16.007812 24.53125 14.363281 25.355469 12.542969 25.355469 C 8.855469 25.355469 5.859375 21.972656 5.859375 17.796875 C 5.859375 13.628906 8.855469 10.246094 12.542969 10.246094 C 16.238281 10.246094 19.234375 13.628906 19.234375 17.796875 C 19.234375 18.605469 19.117188 19.378906 18.910156 20.105469 Z M 22.550781 23.652344 " fill-opacity="1" fill-rule="nonzero"/></g><path fill="#c3ddda" d="M 64.203125 11.316406 C 67.367188 11.316406 69.9375 14.222656 69.9375 17.796875 C 69.9375 21.378906 67.367188 24.285156 64.203125 24.285156 C 62.644531 24.285156 61.234375 23.578125 60.199219 22.4375 L 55.609375 22.824219 L 58.734375 19.777344 C 58.5625 19.152344 58.464844 18.488281 58.464844 17.796875 C 58.464844 14.222656 61.027344 11.316406 64.203125 11.316406 Z M 64.203125 11.316406 " fill-opacity="1" fill-rule="nonzero"/><path fill="#1ea6bc" d="M 45.851562 18.375 C 48.449219 18.375 50.5625 20.484375 50.5625 23.085938 C 50.5625 25.695312 48.449219 27.804688 45.851562 27.804688 C 43.257812 27.804688 41.148438 25.695312 41.148438 23.085938 C 41.148438 20.484375 43.257812 18.375 45.851562 18.375 Z M 45.851562 18.375 " fill-opacity="1" fill-rule="nonzero"/><path fill="#524956" d="M 52.554688 20.828125 C 52.792969 21.535156 52.925781 22.296875 52.925781 23.085938 C 52.925781 24.308594 52.617188 25.453125 52.070312 26.460938 C 51.628906 27.285156 51.015625 28.015625 50.296875 28.601562 C 49.078125 29.582031 47.53125 30.171875 45.851562 30.171875 C 41.949219 30.171875 38.78125 27 38.78125 23.085938 C 38.78125 21.089844 39.609375 19.285156 40.9375 17.996094 C 42.164062 16.808594 43.824219 16.054688 45.65625 16.007812 C 45.722656 16 45.785156 16 45.851562 16 C 48.96875 16 51.617188 18.023438 52.554688 20.828125 Z M 50.5625 23.085938 C 50.5625 20.484375 48.449219 18.375 45.851562 18.375 C 43.257812 18.375 41.148438 20.484375 41.148438 23.085938 C 41.148438 25.695312 43.257812 27.804688 45.851562 27.804688 C 48.449219 27.804688 50.5625 25.695312 50.5625 23.085938 Z M 50.5625 23.085938 " fill-opacity="1" fill-rule="nonzero"/><path fill="#504256" d="M 54.101562 28.234375 L 52.1875 30.429688 L 50.296875 28.601562 C 51.015625 28.015625 51.628906 27.285156 52.070312 26.460938 Z M 54.101562 28.234375 " fill-opacity="1" fill-rule="nonzero"/><path fill="#f9b132" d="M 27.546875 15.0625 C 26.050781 17.691406 25.523438 20.59375 25.429688 23.609375 C 24.054688 22.386719 23.351562 20.65625 23.863281 17.996094 C 22.953125 18.761719 21.945312 18.921875 20.875 18.707031 C 23.707031 16.179688 23.125 10.433594 26.164062 7.058594 C 29.199219 3.683594 33.035156 4.082031 33.035156 4.082031 C 33.035156 4.082031 37.914062 0.308594 45.054688 3.046875 C 51.679688 5.589844 51.164062 11.445312 56.269531 16.222656 C 55.324219 16.6875 54.242188 16.621094 53.035156 16.007812 C 53.554688 17.773438 53.257812 19.347656 52.558594 20.828125 L 52.554688 20.828125 C 51.617188 18.023438 48.96875 16 45.851562 16 C 45.785156 16 45.722656 16 45.65625 16.007812 C 43.824219 16.054688 42.164062 16.808594 40.9375 17.996094 C 37.414062 17.273438 35.003906 15.167969 33.511719 11.917969 C 32.4375 15.03125 30.757812 17.167969 28.246094 17.992188 C 27.65625 17.144531 27.496094 16.136719 27.546875 15.0625 Z M 27.546875 15.0625 " fill-opacity="1" fill-rule="nonzero"/><path fill="#fec4b9" d="M 26.875 30.875 C 25.460938 31.042969 23.988281 30.035156 23.378906 28.371094 C 22.671875 26.441406 23.382812 24.375 24.964844 23.742188 C 25.117188 23.683594 25.273438 23.640625 25.429688 23.609375 C 25.703125 26.390625 26.203125 28.945312 26.875 30.875 Z M 26.875 30.875 " fill-opacity="1" fill-rule="nonzero"/><path fill="#ffd7d2" d="M 56.695312 27.804688 C 57.398438 28.417969 57.464844 29.484375 56.859375 30.183594 L 55.125 32.171875 L 55.117188 32.175781 L 54.371094 33.035156 C 54.042969 33.414062 53.570312 33.613281 53.105469 33.613281 C 52.871094 33.613281 52.632812 33.558594 52.410156 33.460938 C 52.265625 33.398438 52.128906 33.308594 52.003906 33.199219 C 51.308594 32.585938 51.234375 31.519531 51.84375 30.820312 L 52.1875 30.429688 L 54.101562 28.234375 L 54.328125 27.96875 C 54.660156 27.589844 55.128906 27.390625 55.59375 27.390625 C 55.984375 27.390625 56.378906 27.527344 56.695312 27.804688 Z M 56.695312 27.804688 " fill-opacity="1" fill-rule="nonzero"/><path fill="#ffd7d2" d="M 59.316406 29.921875 C 60.011719 30.527344 60.082031 31.597656 59.476562 32.292969 L 57.628906 34.414062 C 57.304688 34.773438 56.84375 34.964844 56.386719 34.964844 C 56.261719 34.964844 56.132812 34.949219 56.007812 34.917969 C 55.75 34.859375 55.5 34.738281 55.285156 34.550781 C 54.589844 33.9375 54.519531 32.875 55.117188 32.175781 L 55.125 32.171875 L 56.859375 30.183594 L 56.949219 30.082031 C 57.277344 29.699219 57.742188 29.507812 58.210938 29.507812 C 58.605469 29.507812 58.996094 29.644531 59.316406 29.921875 Z M 59.316406 29.921875 " fill-opacity="1" fill-rule="nonzero"/><path fill="#ffd7d2" d="M 55.117188 32.175781 C 54.519531 32.875 54.589844 33.9375 55.285156 34.550781 C 55.5 34.738281 55.75 34.859375 56.007812 34.917969 C 56.335938 35.589844 56.382812 36.230469 55.992188 36.679688 C 55.472656 37.273438 54.417969 37.300781 53.492188 36.753906 C 53.488281 36.75 53.488281 36.75 53.488281 36.75 C 53.332031 36.65625 53.175781 36.542969 53.027344 36.414062 C 52.03125 35.539062 51.804688 34.152344 52.410156 33.460938 C 52.632812 33.558594 52.871094 33.613281 53.105469 33.613281 C 53.570312 33.613281 54.042969 33.414062 54.371094 33.035156 Z M 55.117188 32.175781 " fill-opacity="1" fill-rule="nonzero"/><path fill="#ffd7d2" d="M 62.09375 32.402344 C 62.542969 33.027344 62.527344 33.898438 62.007812 34.507812 L 60.046875 36.753906 C 59.71875 37.132812 59.246094 37.332031 58.78125 37.332031 C 58.390625 37.332031 58 37.195312 57.679688 36.917969 C 56.984375 36.304688 56.910156 35.242188 57.515625 34.539062 L 57.628906 34.414062 L 59.476562 32.292969 C 59.804688 31.914062 60.277344 31.714844 60.742188 31.714844 C 61.132812 31.714844 61.527344 31.851562 61.84375 32.128906 C 61.890625 32.171875 61.933594 32.214844 61.976562 32.261719 C 61.996094 32.289062 62.039062 32.335938 62.09375 32.402344 Z M 62.09375 32.402344 " fill-opacity="1" fill-rule="nonzero"/><path fill="#ffd7d2" d="M 62.09375 32.402344 C 62.675781 33.089844 64.8125 35.734375 64.800781 37.148438 C 64.785156 38.894531 63.589844 40.125 62.132812 40.125 C 60.296875 40.125 59.96875 39.484375 59 39.402344 C 59 39.402344 59 39.402344 58.996094 39.402344 C 58.933594 39.398438 58.867188 39.394531 58.796875 39.394531 C 57.664062 39.394531 57.574219 39.996094 55.859375 39.679688 C 54.199219 39.382812 53.53125 36.910156 53.492188 36.753906 C 54.417969 37.300781 55.472656 37.273438 55.992188 36.679688 C 56.382812 36.230469 56.335938 35.589844 56.007812 34.917969 C 56.132812 34.949219 56.261719 34.964844 56.386719 34.964844 C 56.84375 34.964844 57.304688 34.773438 57.628906 34.414062 L 57.515625 34.539062 C 56.910156 35.242188 56.984375 36.304688 57.679688 36.917969 C 58 37.195312 58.390625 37.332031 58.78125 37.332031 C 59.246094 37.332031 59.71875 37.132812 60.046875 36.753906 L 62.007812 34.507812 C 62.527344 33.898438 62.542969 33.027344 62.09375 32.402344 Z M 62.09375 32.402344 " fill-opacity="1" fill-rule="nonzero"/><path fill="#ffd7d2" d="M 41.394531 38.746094 L 41.394531 45.097656 C 41.394531 45.097656 40.40625 47.101562 38.261719 47.101562 C 36.113281 47.101562 35.125 45.097656 35.125 45.097656 L 35.125 38.746094 C 36.121094 39.074219 37.179688 39.269531 38.261719 39.269531 C 39.34375 39.269531 40.398438 39.074219 41.394531 38.746094 Z M 41.394531 38.746094 " fill-opacity="1" fill-rule="nonzero"/><path fill="#f7b6ad" d="M 41.394531 38.746094 L 41.394531 41.980469 C 39.152344 41.933594 37.03125 41.40625 35.125 40.5 L 35.125 38.746094 C 36.121094 39.074219 37.179688 39.269531 38.261719 39.269531 C 39.34375 39.269531 40.398438 39.074219 41.394531 38.746094 Z M 41.394531 38.746094 " fill-opacity="1" fill-rule="nonzero"/><path fill="#ffd7d2" d="M 50.296875 28.601562 C 49.871094 30.421875 49.332031 31.953125 48.710938 32.984375 C 47.503906 35 44.75 37.640625 41.394531 38.746094 C 40.398438 39.074219 39.34375 39.269531 38.261719 39.269531 C 37.179688 39.269531 36.121094 39.074219 35.125 38.746094 C 31.769531 37.640625 29.015625 35 27.808594 32.984375 C 27.46875 32.417969 27.15625 31.699219 26.875 30.875 C 26.203125 28.945312 25.703125 26.390625 25.429688 23.609375 C 25.523438 20.59375 26.050781 17.691406 27.546875 15.0625 C 27.496094 16.136719 27.65625 17.144531 28.246094 17.992188 C 30.757812 17.167969 32.4375 15.03125 33.511719 11.917969 C 35.003906 15.167969 37.414062 17.273438 40.9375 17.996094 C 39.609375 19.285156 38.78125 21.089844 38.78125 23.085938 C 38.78125 27 41.949219 30.171875 45.851562 30.171875 C 47.53125 30.171875 49.078125 29.582031 50.296875 28.601562 Z M 50.296875 28.601562 " fill-opacity="1" fill-rule="nonzero"/><path fill="#349370" d="M 25.71875 66.984375 L 25.71875 58.816406 C 25.71875 58.457031 25.425781 58.167969 25.070312 58.167969 C 24.753906 58.167969 24.488281 58.390625 24.429688 58.699219 C 23.742188 62.421875 23.019531 65.917969 21.925781 66.984375 Z M 25.71875 66.984375 " fill-opacity="1" fill-rule="nonzero"/><path fill="#349370" d="M 50.800781 66.984375 L 50.800781 57.636719 C 50.800781 57.269531 50.503906 56.96875 50.136719 56.96875 C 49.800781 56.96875 49.515625 57.222656 49.476562 57.558594 C 48.984375 61.566406 48.359375 65.257812 46.878906 66.984375 Z M 50.800781 66.984375 " fill-opacity="1" fill-rule="nonzero"/><path fill="#3a322b" d="M 33.988281 18.832031 C 34.273438 18.882812 34.542969 18.691406 34.59375 18.40625 C 34.640625 18.121094 34.453125 17.847656 34.167969 17.800781 C 34.09375 17.789062 32.324219 17.492188 31.019531 18.410156 C 30.785156 18.578125 30.730469 18.90625 30.894531 19.140625 C 30.996094 19.285156 31.160156 19.363281 31.324219 19.363281 C 31.425781 19.363281 31.53125 19.332031 31.625 19.269531 C 32.5625 18.605469 33.960938 18.824219 33.988281 18.832031 Z M 33.988281 18.832031 " fill-opacity="1" fill-rule="nonzero"/><path fill="#3a322b" d="M 35.925781 23.578125 C 35.933594 23.382812 35.828125 23.195312 35.65625 23.101562 L 32.320312 21.261719 C 32.066406 21.121094 31.746094 21.214844 31.609375 21.46875 C 31.46875 21.722656 31.5625 22.042969 31.816406 22.179688 L 34.238281 23.515625 L 31.851562 24.609375 C 31.585938 24.730469 31.472656 25.042969 31.59375 25.304688 C 31.679688 25.496094 31.871094 25.609375 32.066406 25.609375 C 32.140625 25.609375 32.214844 25.59375 32.285156 25.5625 L 35.621094 24.035156 C 35.800781 23.953125 35.917969 23.777344 35.925781 23.578125 Z M 35.925781 23.578125 " fill-opacity="1" fill-rule="nonzero"/><path fill="#3a322b" d="M 36.398438 25.941406 C 35.507812 25.609375 34.699219 25.910156 34.613281 25.945312 C 34.34375 26.050781 34.214844 26.351562 34.320312 26.621094 C 34.421875 26.886719 34.722656 27.019531 34.992188 26.917969 C 35 26.917969 35.511719 26.726562 36.035156 26.921875 C 36.472656 27.085938 36.851562 27.628906 36.957031 27.824219 C 37.054688 28 37.230469 28.097656 37.417969 28.097656 C 37.5 28.097656 37.585938 28.078125 37.667969 28.03125 C 37.921875 27.894531 38.015625 27.578125 37.875 27.324219 C 37.816406 27.214844 37.285156 26.273438 36.398438 25.941406 Z M 36.398438 25.941406 " fill-opacity="1" fill-rule="nonzero"/><path fill="#3a322b" d="M 45.851562 28.328125 C 48.738281 28.328125 51.082031 25.976562 51.082031 23.085938 C 51.082031 20.199219 48.738281 17.847656 45.851562 17.847656 C 42.96875 17.847656 40.625 20.199219 40.625 23.085938 C 40.625 25.976562 42.972656 28.328125 45.851562 28.328125 Z M 45.851562 18.894531 C 48.160156 18.894531 50.039062 20.777344 50.039062 23.085938 C 50.039062 25.398438 48.160156 27.28125 45.851562 27.28125 C 43.546875 27.28125 41.671875 25.398438 41.671875 23.085938 C 41.671875 20.777344 43.546875 18.894531 45.851562 18.894531 Z M 45.851562 18.894531 " fill-opacity="1" fill-rule="nonzero"/><g clip-path="url(#id2)"><path fill="#3a322b" d="M 23.027344 23.867188 C 23.121094 23.667969 23.074219 23.429688 22.917969 23.277344 L 19.496094 19.945312 C 19.667969 19.242188 19.753906 18.523438 19.753906 17.800781 C 19.753906 13.347656 16.519531 9.722656 12.546875 9.722656 C 8.570312 9.722656 5.335938 13.347656 5.335938 17.800781 C 5.335938 22.253906 8.570312 25.878906 12.546875 25.878906 C 14.363281 25.878906 16.085938 25.125 17.417969 23.75 L 22.507812 24.171875 C 22.722656 24.191406 22.9375 24.070312 23.027344 23.867188 Z M 17.253906 22.683594 C 17.09375 22.671875 16.933594 22.734375 16.824219 22.851562 C 15.667969 24.128906 14.148438 24.832031 12.546875 24.832031 C 9.148438 24.832031 6.382812 21.675781 6.382812 17.800781 C 6.382812 13.921875 9.148438 10.769531 12.546875 10.769531 C 15.945312 10.769531 18.707031 13.921875 18.707031 17.800781 C 18.707031 18.53125 18.609375 19.261719 18.410156 19.964844 C 18.355469 20.148438 18.410156 20.347656 18.546875 20.480469 L 21.144531 23.007812 Z M 17.253906 22.683594 " fill-opacity="1" fill-rule="nonzero"/></g><path fill="#3a322b" d="M 12.164062 12.351562 C 10.550781 12.351562 9.238281 13.667969 9.238281 15.285156 C 9.238281 15.574219 9.472656 15.808594 9.761719 15.808594 C 10.050781 15.808594 10.285156 15.574219 10.285156 15.285156 C 10.285156 14.246094 11.128906 13.402344 12.164062 13.402344 C 13.199219 13.402344 14.042969 14.246094 14.042969 15.285156 C 14.042969 16.320312 13.199219 17.167969 12.164062 17.167969 C 11.875 17.167969 11.640625 17.402344 11.640625 17.691406 L 11.640625 20.691406 C 11.640625 20.980469 11.875 21.214844 12.164062 21.214844 C 12.453125 21.214844 12.6875 20.980469 12.6875 20.691406 L 12.6875 18.167969 C 14.050781 17.917969 15.089844 16.722656 15.089844 15.285156 C 15.089844 13.667969 13.777344 12.351562 12.164062 12.351562 Z M 12.164062 12.351562 " fill-opacity="1" fill-rule="nonzero"/><path fill="#3a322b" d="M 12.949219 22.613281 C 12.949219 22.832031 12.871094 23.015625 12.71875 23.167969 C 12.566406 23.320312 12.382812 23.398438 12.164062 23.398438 C 11.949219 23.398438 11.761719 23.320312 11.609375 23.167969 C 11.457031 23.015625 11.378906 22.832031 11.378906 22.613281 C 11.378906 22.394531 11.457031 22.210938 11.609375 22.058594 C 11.761719 21.90625 11.949219 21.828125 12.164062 21.828125 C 12.382812 21.828125 12.566406 21.90625 12.71875 22.058594 C 12.871094 22.210938 12.949219 22.394531 12.949219 22.613281 Z M 12.949219 22.613281 " fill-opacity="1" fill-rule="nonzero"/><g clip-path="url(#id3)"><path fill="#3a322b" d="M 64.203125 10.792969 C 60.75 10.792969 57.941406 13.9375 57.941406 17.800781 C 57.941406 18.414062 58.011719 19.023438 58.15625 19.617188 L 55.246094 22.449219 C 55.089844 22.601562 55.042969 22.839844 55.136719 23.039062 C 55.226562 23.242188 55.433594 23.363281 55.65625 23.34375 L 59.988281 22.984375 C 61.144531 24.160156 62.632812 24.808594 64.203125 24.808594 C 67.652344 24.808594 70.460938 21.664062 70.460938 17.800781 C 70.460938 13.9375 67.652344 10.792969 64.203125 10.792969 Z M 64.203125 23.761719 C 62.847656 23.761719 61.5625 23.167969 60.582031 22.085938 C 60.484375 21.976562 60.34375 21.914062 60.195312 21.914062 C 60.183594 21.914062 60.167969 21.917969 60.152344 21.917969 L 57.023438 22.179688 L 59.101562 20.15625 C 59.238281 20.019531 59.292969 19.820312 59.238281 19.636719 C 59.070312 19.039062 58.984375 18.421875 58.984375 17.800781 C 58.984375 14.511719 61.324219 11.839844 64.203125 11.839844 C 67.078125 11.839844 69.417969 14.511719 69.417969 17.800781 C 69.417969 21.085938 67.078125 23.761719 64.203125 23.761719 Z M 64.203125 23.761719 " fill-opacity="1" fill-rule="nonzero"/></g><path fill="#3a322b" d="M 64.527344 13.050781 C 63.101562 13.050781 61.945312 14.210938 61.945312 15.640625 C 61.945312 15.929688 62.179688 16.164062 62.46875 16.164062 C 62.757812 16.164062 62.988281 15.929688 62.988281 15.640625 C 62.988281 14.789062 63.679688 14.097656 64.527344 14.097656 C 65.378906 14.097656 66.066406 14.789062 66.066406 15.640625 C 66.066406 16.492188 65.378906 17.183594 64.527344 17.183594 C 64.238281 17.183594 64.003906 17.417969 64.003906 17.707031 L 64.003906 20.28125 C 64.003906 20.570312 64.238281 20.804688 64.527344 20.804688 C 64.816406 20.804688 65.050781 20.570312 65.050781 20.28125 L 65.050781 18.175781 C 66.226562 17.933594 67.113281 16.886719 67.113281 15.640625 C 67.113281 14.210938 65.953125 13.050781 64.527344 13.050781 Z M 64.527344 13.050781 " fill-opacity="1" fill-rule="nonzero"/><path fill="#3a322b" d="M 65.203125 21.933594 C 65.203125 22.117188 65.136719 22.277344 65.003906 22.410156 C 64.871094 22.539062 64.714844 22.605469 64.527344 22.605469 C 64.34375 22.605469 64.183594 22.539062 64.050781 22.410156 C 63.921875 22.277344 63.855469 22.117188 63.855469 21.933594 C 63.855469 21.746094 63.921875 21.585938 64.050781 21.453125 C 64.183594 21.324219 64.34375 21.257812 64.527344 21.257812 C 64.714844 21.257812 64.871094 21.324219 65.003906 21.453125 C 65.136719 21.585938 65.203125 21.746094 65.203125 21.933594 Z M 65.203125 21.933594 " fill-opacity="1" fill-rule="nonzero"/><g clip-path="url(#id4)"><path fill="#3a322b" d="M 67.292969 39.390625 C 66.859375 37.910156 65.804688 37.125 65.296875 36.820312 C 65.050781 35.183594 63.082031 32.757812 62.492188 32.058594 C 62.488281 32.054688 62.480469 32.046875 62.476562 32.042969 C 62.421875 31.976562 62.371094 31.917969 62.34375 31.890625 C 62.332031 31.875 62.3125 31.867188 62.300781 31.851562 C 62.261719 31.816406 62.230469 31.773438 62.191406 31.738281 C 61.679688 31.292969 61.023438 31.132812 60.402344 31.230469 C 60.414062 30.601562 60.167969 29.96875 59.660156 29.523438 C 59.128906 29.058594 58.433594 28.90625 57.789062 29.03125 C 57.777344 28.433594 57.53125 27.835938 57.042969 27.414062 C 56.171875 26.652344 54.875 26.710938 54.0625 27.507812 L 52.714844 26.324219 C 53.179688 25.339844 53.449219 24.246094 53.449219 23.085938 C 53.449219 22.3125 53.332031 21.5625 53.113281 20.859375 C 53.726562 19.488281 53.941406 18.167969 53.753906 16.863281 C 54.746094 17.160156 55.667969 17.101562 56.5 16.691406 C 56.65625 16.613281 56.761719 16.464844 56.785156 16.296875 C 56.8125 16.125 56.75 15.953125 56.625 15.835938 C 54.59375 13.9375 53.480469 11.859375 52.402344 9.851562 C 50.824219 6.90625 49.332031 4.125 45.242188 2.558594 C 38.558594 -0.00390625 33.824219 2.894531 32.882812 3.546875 C 32 3.507812 28.582031 3.589844 25.773438 6.710938 C 24.175781 8.484375 23.546875 10.804688 22.941406 13.050781 C 22.367188 15.160156 21.828125 17.152344 20.527344 18.316406 C 20.378906 18.449219 20.320312 18.65625 20.371094 18.84375 C 20.421875 19.035156 20.578125 19.183594 20.773438 19.222656 C 21.65625 19.398438 22.464844 19.332031 23.195312 19.019531 C 23.0625 20.777344 23.492188 22.214844 24.488281 23.390625 C 22.847656 24.242188 22.128906 26.480469 22.886719 28.550781 C 23.519531 30.269531 24.964844 31.386719 26.507812 31.410156 C 26.769531 32.125 27.054688 32.75 27.359375 33.257812 C 28.390625 34.976562 30.710938 37.378906 33.691406 38.742188 C 31.78125 39.734375 30.585938 41.6875 30.015625 44.789062 C 25.402344 47.773438 19.585938 54.019531 17.589844 66.90625 C 17.585938 66.917969 17.589844 66.933594 17.589844 66.945312 C 17.589844 66.960938 17.582031 66.972656 17.582031 66.984375 C 17.582031 67.007812 17.59375 67.027344 17.59375 67.046875 C 17.597656 67.085938 17.605469 67.117188 17.617188 67.152344 C 17.625 67.183594 17.640625 67.210938 17.65625 67.242188 C 17.675781 67.269531 17.691406 67.296875 17.710938 67.324219 C 17.734375 67.347656 17.757812 67.371094 17.785156 67.390625 C 17.8125 67.410156 17.835938 67.429688 17.867188 67.445312 C 17.898438 67.460938 17.929688 67.472656 17.964844 67.480469 C 17.984375 67.488281 18.003906 67.5 18.023438 67.503906 C 18.050781 67.507812 18.078125 67.507812 18.105469 67.511719 L 50.804688 67.511719 C 51.09375 67.511719 51.328125 67.277344 51.328125 66.984375 L 51.324219 55.148438 C 52.074219 55.332031 53.371094 55.578125 54.960938 55.578125 C 56.9375 55.578125 59.367188 55.199219 61.746094 53.84375 C 67.457031 50.589844 67.203125 43.195312 67.125 41.996094 C 67.300781 41.625 67.660156 40.648438 67.292969 39.390625 Z M 66.289062 39.683594 C 66.613281 40.796875 66.164062 41.585938 66.136719 41.625 C 65.789062 42.234375 64.804688 42.785156 63.503906 43.101562 C 61.816406 43.515625 60.246094 43.398438 59.691406 43.046875 C 59.652344 43.023438 58.804688 42.488281 58.808594 41.511719 C 58.808594 40.816406 59.070312 40.269531 59.242188 39.976562 C 59.417969 40.019531 59.582031 40.085938 59.773438 40.167969 C 60.285156 40.382812 60.914062 40.652344 62.132812 40.652344 C 63.652344 40.652344 64.863281 39.578125 65.214844 38.046875 C 65.601562 38.371094 66.058594 38.894531 66.289062 39.683594 Z M 35.648438 39.441406 C 36.488281 39.664062 37.359375 39.792969 38.261719 39.792969 C 39.160156 39.792969 40.035156 39.664062 40.875 39.441406 L 40.871094 42.929688 L 40.875 42.929688 L 40.875 44.964844 C 40.660156 45.332031 39.8125 46.578125 38.261719 46.578125 C 36.703125 46.578125 35.859375 45.332031 35.644531 44.964844 L 35.644531 42.925781 Z M 35.644531 46.589844 C 36.234375 47.125 37.09375 47.625 38.261719 47.625 C 39.425781 47.625 40.285156 47.125 40.875 46.589844 L 40.871094 66.460938 L 35.648438 66.460938 Z M 41.917969 42.925781 C 41.917969 42.921875 41.917969 42.917969 41.917969 42.914062 L 41.917969 39.480469 C 44.492188 40.546875 45.714844 43.515625 45.851562 48.964844 C 45.867188 49.539062 45.570312 50.074219 45.078125 50.363281 L 41.917969 52.226562 Z M 42.828125 38.742188 C 45.808594 37.378906 48.128906 34.976562 49.160156 33.253906 C 49.691406 32.371094 50.175781 31.117188 50.582031 29.605469 L 51.46875 30.460938 L 51.449219 30.476562 C 51.066406 30.921875 50.875 31.488281 50.914062 32.078125 C 50.953125 32.667969 51.21875 33.203125 51.660156 33.589844 C 51.679688 33.605469 51.699219 33.617188 51.71875 33.632812 C 51.558594 34.023438 51.511719 34.484375 51.605469 34.96875 C 51.742188 35.664062 52.125 36.320312 52.6875 36.808594 C 52.800781 36.90625 52.917969 36.984375 53.039062 37.066406 C 53.238281 37.726562 54.023438 39.878906 55.769531 40.199219 C 56.933594 40.410156 57.46875 40.234375 57.941406 40.078125 C 57.980469 40.066406 58.015625 40.054688 58.050781 40.042969 C 57.894531 40.4375 57.765625 40.933594 57.761719 41.507812 C 57.761719 42.171875 57.996094 42.703125 58.273438 43.09375 C 58.21875 43.734375 57.894531 46.015625 56.105469 46.605469 C 53.890625 47.332031 48.648438 45.585938 46.496094 44.730469 C 45.921875 41.660156 44.730469 39.730469 42.828125 38.742188 Z M 45.851562 16.527344 C 49.464844 16.527344 52.402344 19.46875 52.402344 23.085938 C 52.402344 26.707031 49.464844 29.648438 45.851562 29.648438 C 42.242188 29.648438 39.304688 26.707031 39.304688 23.085938 C 39.304688 19.46875 42.242188 16.527344 45.851562 16.527344 Z M 54.257812 33.796875 C 54.363281 34.238281 54.59375 34.636719 54.941406 34.941406 C 55.144531 35.121094 55.375 35.257812 55.625 35.347656 C 55.753906 35.683594 55.824219 36.074219 55.597656 36.335938 C 55.21875 36.773438 54.1875 36.730469 53.375 36.019531 C 52.992188 35.6875 52.722656 35.230469 52.632812 34.769531 C 52.582031 34.515625 52.597656 34.277344 52.660156 34.082031 C 52.808594 34.113281 52.957031 34.132812 53.109375 34.132812 C 53.507812 34.132812 53.90625 34.015625 54.257812 33.796875 Z M 62.132812 39.605469 C 61.128906 39.605469 60.648438 39.402344 60.183594 39.203125 C 59.839844 39.058594 59.480469 38.914062 58.988281 38.882812 C 58.976562 38.882812 58.964844 38.878906 58.953125 38.878906 C 58.902344 38.875 58.855469 38.867188 58.796875 38.867188 C 58.265625 38.867188 57.917969 38.984375 57.613281 39.082031 C 57.210938 39.21875 56.859375 39.332031 55.953125 39.167969 C 55.238281 39.035156 54.707031 38.300781 54.375 37.617188 C 54.53125 37.640625 54.6875 37.664062 54.839844 37.664062 C 55.449219 37.664062 56.011719 37.453125 56.382812 37.027344 C 56.503906 36.886719 56.640625 36.671875 56.71875 36.386719 C 56.84375 36.738281 57.046875 37.058594 57.335938 37.308594 C 57.753906 37.671875 58.269531 37.851562 58.78125 37.851562 C 59.398438 37.851562 60.007812 37.597656 60.441406 37.097656 L 62.402344 34.851562 C 62.578125 34.644531 62.710938 34.410156 62.800781 34.164062 C 63.582031 35.257812 64.28125 36.464844 64.277344 37.140625 C 64.269531 38.546875 63.347656 39.605469 62.132812 39.605469 Z M 60.742188 32.242188 C 61.011719 32.242188 61.285156 32.335938 61.503906 32.527344 C 61.554688 32.570312 61.597656 32.621094 61.636719 32.671875 C 61.648438 32.683594 61.65625 32.695312 61.667969 32.707031 C 61.988281 33.132812 61.976562 33.742188 61.613281 34.160156 L 59.65625 36.410156 C 59.234375 36.890625 58.503906 36.941406 58.023438 36.519531 C 57.792969 36.316406 57.652344 36.035156 57.632812 35.726562 C 57.613281 35.414062 57.710938 35.117188 57.914062 34.886719 L 58.046875 34.734375 C 58.046875 34.730469 58.046875 34.730469 58.046875 34.730469 L 59.871094 32.636719 C 60.097656 32.375 60.421875 32.242188 60.742188 32.242188 Z M 58.132812 30.03125 C 58.160156 30.03125 58.1875 30.03125 58.214844 30.03125 C 58.496094 30.03125 58.761719 30.128906 58.972656 30.3125 C 59.453125 30.734375 59.503906 31.46875 59.082031 31.949219 L 57.261719 34.042969 C 57.058594 34.273438 56.777344 34.414062 56.464844 34.433594 C 56.160156 34.457031 55.859375 34.355469 55.628906 34.152344 C 55.398438 33.953125 55.257812 33.667969 55.238281 33.359375 C 55.214844 33.046875 55.316406 32.75 55.519531 32.519531 L 57.339844 30.425781 C 57.542969 30.191406 57.824219 30.054688 58.132812 30.03125 Z M 55.597656 27.917969 C 55.867188 27.917969 56.136719 28.011719 56.355469 28.203125 C 56.585938 28.402344 56.726562 28.6875 56.746094 28.996094 C 56.765625 29.304688 56.667969 29.601562 56.46875 29.835938 L 55.09375 31.410156 L 53.980469 32.691406 C 53.777344 32.921875 53.496094 33.0625 53.1875 33.082031 C 52.867188 33.105469 52.578125 33.003906 52.347656 32.800781 C 52.117188 32.601562 51.980469 32.316406 51.957031 32.007812 C 51.9375 31.699219 52.035156 31.398438 52.238281 31.167969 L 54.722656 28.3125 C 54.953125 28.050781 55.273438 27.917969 55.597656 27.917969 Z M 53.359375 28.285156 L 52.15625 29.667969 L 51.058594 28.613281 C 51.488281 28.207031 51.871094 27.757812 52.195312 27.261719 Z M 24.125 17.542969 C 23.933594 17.433594 23.695312 17.453125 23.523438 17.59375 C 23.058594 17.992188 22.554688 18.210938 21.984375 18.261719 C 22.972656 16.929688 23.449219 15.167969 23.949219 13.324219 C 24.527344 11.199219 25.121094 9 26.550781 7.410156 C 29.363281 4.285156 32.839844 4.589844 32.984375 4.601562 C 33.117188 4.617188 33.25 4.578125 33.355469 4.496094 C 33.402344 4.460938 38.082031 0.933594 44.871094 3.539062 C 48.59375 4.964844 49.933594 7.460938 51.484375 10.347656 C 52.484375 12.21875 53.519531 14.148438 55.28125 15.984375 C 54.679688 16.0625 54.011719 15.914062 53.265625 15.539062 C 53.082031 15.445312 52.855469 15.46875 52.695312 15.605469 C 52.535156 15.738281 52.472656 15.953125 52.53125 16.15625 C 52.859375 17.253906 52.859375 18.328125 52.527344 19.457031 C 51.261719 17.136719 48.824219 15.546875 46.019531 15.488281 C 45.433594 13.929688 44.347656 12.863281 42.773438 12.335938 C 42.503906 12.242188 42.203125 12.390625 42.113281 12.664062 C 42.019531 12.9375 42.167969 13.234375 42.441406 13.328125 C 43.609375 13.722656 44.421875 14.449219 44.917969 15.542969 C 43.34375 15.738281 41.921875 16.417969 40.800781 17.425781 C 37.722656 16.726562 35.519531 14.910156 34.074219 11.878906 C 34.261719 11.3125 34.433594 10.714844 34.585938 10.078125 C 34.65625 9.796875 34.484375 9.515625 34.203125 9.449219 C 33.925781 9.378906 33.640625 9.550781 33.570312 9.832031 C 32.589844 13.902344 30.921875 16.371094 28.472656 17.351562 C 28.15625 16.746094 28.027344 16.015625 28.070312 15.089844 C 28.082031 14.847656 27.925781 14.628906 27.691406 14.5625 C 27.460938 14.492188 27.210938 14.59375 27.09375 14.804688 C 25.886719 16.933594 25.203125 19.34375 24.976562 22.300781 C 24.234375 21.195312 24.039062 19.832031 24.375 18.09375 C 24.417969 17.875 24.316406 17.65625 24.125 17.542969 Z M 23.867188 28.1875 C 23.289062 26.609375 23.792969 24.9375 24.980469 24.328125 C 25.238281 26.597656 25.636719 28.640625 26.140625 30.3125 C 25.183594 30.121094 24.285156 29.320312 23.867188 28.1875 Z M 28.257812 32.71875 C 27.207031 30.964844 26.347656 27.554688 25.953125 23.59375 C 26.035156 21.003906 26.4375 18.851562 27.207031 16.964844 C 27.339844 17.457031 27.542969 17.894531 27.820312 18.289062 C 27.953125 18.476562 28.191406 18.558594 28.410156 18.488281 C 30.691406 17.738281 32.398438 15.996094 33.582031 13.199219 C 35.058594 15.800781 37.199219 17.511719 39.964844 18.292969 C 38.898438 19.601562 38.261719 21.269531 38.261719 23.085938 C 38.261719 27.285156 41.667969 30.695312 45.851562 30.695312 C 47.152344 30.695312 48.375 30.367188 49.445312 29.789062 C 49.09375 31.003906 48.691406 32 48.261719 32.71875 C 46.867188 35.046875 42.917969 38.746094 38.261719 38.746094 C 33.601562 38.746094 29.652344 35.046875 28.257812 32.71875 Z M 34.601562 39.480469 L 34.601562 52.226562 L 31.441406 50.363281 C 30.949219 50.074219 30.652344 49.539062 30.667969 48.964844 C 30.808594 43.515625 32.03125 40.546875 34.601562 39.480469 Z M 29.8125 46.191406 C 29.714844 47.039062 29.648438 47.945312 29.621094 48.9375 C 29.597656 49.890625 30.09375 50.785156 30.914062 51.269531 L 34.601562 53.441406 L 34.605469 66.460938 L 26.242188 66.460938 L 26.242188 58.167969 C 26.242188 57.878906 26.007812 57.644531 25.71875 57.644531 C 25.429688 57.644531 25.195312 57.878906 25.195312 58.167969 L 25.195312 66.460938 L 18.722656 66.460938 C 20.625 55.074219 25.597656 49.195312 29.8125 46.191406 Z M 61.230469 52.933594 C 56.324219 55.722656 51.023438 53.980469 50.96875 53.960938 C 50.941406 53.953125 50.914062 53.953125 50.886719 53.949219 C 50.859375 53.945312 50.832031 53.933594 50.800781 53.933594 C 50.792969 53.933594 50.785156 53.9375 50.78125 53.9375 C 50.746094 53.9375 50.71875 53.949219 50.683594 53.957031 C 50.648438 53.964844 50.613281 53.96875 50.582031 53.984375 C 50.554688 53.996094 50.535156 54.015625 50.511719 54.03125 C 50.480469 54.054688 50.449219 54.074219 50.421875 54.101562 C 50.402344 54.121094 50.390625 54.144531 50.375 54.167969 C 50.351562 54.203125 50.328125 54.234375 50.316406 54.273438 C 50.3125 54.277344 50.308594 54.28125 50.304688 54.289062 C 50.296875 54.3125 50.300781 54.339844 50.296875 54.367188 C 50.289062 54.398438 50.277344 54.425781 50.277344 54.457031 L 50.28125 66.460938 L 41.914062 66.460938 L 41.917969 53.441406 L 45.605469 51.269531 C 46.425781 50.785156 46.921875 49.890625 46.898438 48.9375 C 46.871094 47.839844 46.792969 46.839844 46.679688 45.921875 C 48.332031 46.542969 52.070312 47.824219 54.78125 47.824219 C 55.398438 47.824219 55.960938 47.753906 56.433594 47.601562 C 58.316406 46.980469 58.972656 45.140625 59.203125 43.96875 C 59.738281 44.28125 60.523438 44.410156 61.371094 44.410156 C 62.179688 44.410156 63.03125 44.296875 63.753906 44.121094 C 64.378906 43.96875 65.328125 43.660156 66.09375 43.128906 C 66.046875 45.445312 65.4375 50.535156 61.230469 52.933594 Z M 61.230469 52.933594 " fill-opacity="1" fill-rule="nonzero"/></g></svg>