<svg xmlns="http://www.w3.org/2000/svg" width="486" viewBox="0 0 364.5 375" height="500" version="1.0"><defs><clipPath id="a"><path d="M59 .258h219V338H59zm0 0"/></clipPath></defs><path fill="#f2f2f2" d="M155.191 189.012s.856 55.539-.488 60.3c-7.441 3.418-46.836 5.247-66.84 4.395-20-.855-27.441-3.238-27.441-3.238s1.77-15.5 2.437-17.207c.672-1.711 1.586-25.633 2.137-33.875.547-8.239-3.11-32.223-.367-48.516 2.746-16.297 15.734-17.945 37.508-21.422 21.77-3.48 53.785-2.199 59.273-2.015 6.223-.184 17.567-1.282 19.578 17.941 2.012 19.227-4.207 30.945-4.207 30.945zm0 0s.856 55.539-.488 60.3c-7.441 3.418-46.836 5.247-66.84 4.395-20-.855-27.441-3.238-27.441-3.238s1.77-15.5 2.437-17.207c.672-1.711 1.586-25.633 2.137-33.875.547-8.239-3.11-32.223-.367-48.516 2.746-16.297 15.734-17.945 37.508-21.422 21.77-3.48 53.785-2.199 59.273-2.015 6.223-.184 17.567-1.282 19.578 17.941 2.012 19.227-4.207 30.945-4.207 30.945zm0 0"/><path fill="#f28383" d="M223.676 111.504h34.336c19.293 0 34.976 15.41 35.468 34.598-6.988-5.536-21.793-16.356-38.03-22.696-22.505-8.789-30.555-10.07-30.555-10.07zM275.39 244.94s-.184 49.29-.914 50.754c-.34.68-17.97 14.868-37.118 29.797l56.145-4.289v-88.531zM126.039 111.504c-13.523 0-25.281 7.574-31.27 18.715 5.876-1.617 13.313-2.297 19.63-2.559l-.579-.73s27.832-10.48 33.32-11.582c3.024-.602 4.766-2.375 5.727-3.844zm-25.766 187.074c-3.32 2.895-6.562 5.43-9.726 7.621v30.508l10.203-.781-.813-.227zm0 0"/><path fill="#efa084" d="M225.887 61.102c-2.336.992-4.59.91-6.364.527l.434 42.371-63.3.547.222-42.672c-1.414.086-3.004-.082-4.629-.773-4.793-2.036-7.031-12.145-1.18-15.688 2.098-1.273 4.102-1.5 5.899-1.172l.05-9.637s29.458-12.082 43.543-12.265c14.09-.184 18.665 9.887 18.665 9.887l.125 12.546c2.527-1.746 5.543-1.816 8.378-.097 5.852 3.547 2.95 14.39-1.843 16.426zM60.969 250.105c-.387-3.89 2.25-22.085 3.824-32.386-6.008-4.66-11.492-8.836-12.969-9.727 0 0-51.812 70.27-24.152 96.672 23.824 22.742 61.742 23.055 112.504-54.25-25.781 5.55-70.242 2.254-79.207-.309zm0 0"/><g clip-path="url(#a)"><path fill="#101011" d="M180.648 197.11a3099.56 3099.56 0 00-1.918-21.485c.063-.07.133-.133.18-.219.27-.504 6.555-12.594 2.488-32.191-2.796-13.504-10.96-17.356-17.359-16.586a1.24 1.24 0 00-.305-.059c-50.511-2.93-86.132 3.578-94 11.192-7.851 7.59-7.574 13.11-6.765 29.484.328 6.547.73 14.7.797 25.559.164 27.515-1.957 39.75-3.364 47.843-.668 3.848-1.148 6.622-1.148 9.641 0 .512.332.965.824 1.117 7.684 2.367 23.547 3.2 39.176 3.2 4.848 0 9.68-.079 14.23-.22 2.239-.07 14.25-.476 24.954-1.495-2.97 4.113-6.32 8.968-8.622 12.472 18.5-.633 53.383-1.82 54.282-1.824.187 0 1.12-.062 1.226-1.309.02-.187.028-.46.028-.82 0-6.055-2.391-37.45-4.704-64.3zm-67.55 54.949c-18.387.554-41.285.136-51.493-2.645.083-2.512.52-5.023 1.102-8.363 1.418-8.18 3.563-20.54 3.395-48.262-.063-10.91-.47-19.09-.797-25.66-.813-16.418-1.032-20.832 6.05-27.688 6.22-6.011 37.102-13.105 86.915-10.812-5.618 3.3-9.762 10.254-8.63 19.152 2.778 21.828 5.52 61.086 4.157 100.11-2.594 1.527-18.317 3.492-40.7 4.168zm60.39-111.696c-.965 0-12.031.7-21.41 1.332 1.215-6.996 6.32-11.761 11.77-12.675 5.714-.95 12.718 2.398 15.265 14.671 2.621 12.645.692 22.121-.851 26.977-.43-4.477-.836-8.543-1.211-12.125-1.903-18.18-2.223-18.18-3.563-18.18zm102.157 103.68a1.167 1.167 0 00-1.168-1.148h-.02a1.163 1.163 0 00-1.148 1.187l1.445 91.09H101.125c.129-8.7.402-24.563.7-37.977-.802.676-1.61 1.407-2.384 2.094a6100.23 6100.23 0 00-.671 37.035s.003.004.003.008-.003.004-.003.008c0 .078.03.148.046.219.012.078.016.156.043.226.032.074.086.133.13.195.038.063.07.13.12.18.051.05.118.086.18.125.063.043.117.098.188.13.066.026.144.03.218.046.078.016.149.047.227.05H275.94a1.171 1.171 0 001.168-1.19zM221.449 16.895c-1.898-7.329-13.797-9.98-20.379-11.747-.148-.039-15.21-3.453-35.09-4.421-7.14-.348-11.132.414-12.21 2.336-.27.48-.598 1.468.222 2.68.668.987 1.95 1.87 3.488 2.53-6.917 2.309-10.742 5.489-11.535 8.63-.433 1.71-.347 4.91 4.606 7.847-1.946 3.156-2.524 7.648-.301 10.277 1.742 2.067 5.563 3.504 13.89-.965a5.319 5.319 0 002.473 2.094c3.875 1.653 10.215-.297 18.871-5.793a3.926 3.926 0 001.414 2.649c2.215 1.87 7.305 2.058 14.551-3.23.801 1.179 1.79 1.671 2.567 1.874 1.8.469 3.73-.246 5.136-1.011-.144 4.335-.023 13.117 3.094 16.296.828.848 1.848 1.29 2.961 1.29 2.492-2.669 4.145-3.461 5.582-4.223 0 0 .738-5.77.906-7.66.547-6.227 1.282-13.551-.246-19.453zm-48.512 33.457a2.256 2.256 0 10-4.512 0 2.256 2.256 0 104.512 0zm54.18-.86a1.16 1.16 0 00-.836-1.406c-.09-.023-2.191-.54-4.336.82-.836.528-1.547 1.27-2.148 2.188-.246.187-.406.46-.453.765-.582 1.106-1.031 2.422-1.332 3.973a1.174 1.174 0 00.925 1.371 1.17 1.17 0 001.371-.926c.239-1.238.587-2.293 1.024-3.168.32.004.711.067.977.317.464.437.586 1.472.336 2.914a1.17 1.17 0 001.152 1.37c.558 0 1.05-.398 1.148-.968.407-2.324.051-4.02-1.058-5.039a3.226 3.226 0 00-.969-.613c.078-.059.156-.13.238-.184 1.281-.832 2.508-.562 2.559-.55a1.173 1.173 0 001.402-.864zm-27.96.86a2.256 2.256 0 10-4.512 0 2.256 2.256 0 104.511 0zm3.905 10.406a1.168 1.168 0 00-1.484.726c-4.55 13.293-10.601 17.653-15.183 17.36 1.664-3.645 3.296-8.555 4.699-15.188a1.164 1.164 0 00-.899-1.386 1.171 1.171 0 00-1.386.902c-3.762 17.762-9.055 22.207-11.153 23.293-1.101.57-1.793.488-1.894.445-1.93-1.176.734-7.996 2.91-13.023 6.707-15.512 4.937-25.184 4.86-25.59a1.17 1.17 0 00-2.298.445c.02.09 1.618 9.106-4.375 23.426-3.226-4.637-5.097-10.082-5.117-10.14a1.17 1.17 0 00-2.215.75c.09.265 2.25 6.57 6.094 11.671.059.07.121.137.188.196-3.18 7.613-4.301 12.41-1.266 14.265.406.246.922.371 1.496.371.668 0 1.426-.168 2.195-.5 1.762-.761 4.399-2.726 7.075-7.726.484.082.976.14 1.488.14 5.433 0 12.187-4.906 16.992-18.953a1.168 1.168 0 00-.726-1.484zm-46.136-7.637l.02-3.879a5.68 5.68 0 00-.47-.336c-2.144-1.36-4.246-.843-4.331-.82a1.16 1.16 0 00-.84 1.406 1.177 1.177 0 001.406.863c.047-.011 1.273-.28 2.555.551.082.055.16.125.238.184-.332.14-.664.328-.969.613-1.105 1.02-1.46 2.715-1.058 5.04a1.167 1.167 0 001.351.952 1.175 1.175 0 00.953-1.355c-.254-1.442-.133-2.477.332-2.914.223-.207.528-.285.813-.305zm0 0"/></g><path fill="#efa084" d="M327.168 204.883s26.344 37.347 31.832 71.77c5.488 34.421-67.324 64.812-99.16 81.66-31.832 16.843-30.371 4.394-28.176-1.833-10.242 5.86-16.098-.367-10.976-8.421-9.88 5.859-17.563-6.594-2.196-19.407 24.153-19.41 77.453-51.39 82.086-55.05-5.61-9.52-18.05-33.934-18.05-33.934 15.734-10.617 44.64-34.785 44.64-34.785zm-170.293 21.086c5.254-8.196 9.309-16.114 8.75-20.578.008-2.864-1.71-4.028-4.852-4.391-1.226-.145-2.734.379-4.253 1.188.175 5.484.402 14.484.355 23.78zm0 0"/><path fill="#101011" d="M243.195 330.957c-.113.098-17.613 13.738-21.668 17.914a1.166 1.166 0 11-1.676-1.629c4.141-4.265 21.376-17.687 21.852-18.082a1.166 1.166 0 011.645.152 1.166 1.166 0 01-.153 1.645zM39.665 194.184c0 .011.003.023.007.035.922 5.082 16.89 18.965 23.762 24.734.218.188.488.277.754.277a1.17 1.17 0 00.75-2.066c-14.774-12.41-22.008-20.363-22.883-23.043 6.797-11.156 13.82-20.219 22.738-29.312.453-.461.445-1.2-.016-1.653a1.167 1.167 0 00-1.652.016c-9.16 9.34-16.355 18.637-23.324 30.148-.028.043-.031.094-.051.14a.953.953 0 00-.082.231c-.02.079-.016.157-.016.239 0 .05-.02.097-.011.152.004.031.015.07.023.102zm28.55 57.09c-.16.152-16.168 15.519-29.082 35.359a1.17 1.17 0 00.344 1.62 1.17 1.17 0 001.617-.344c12.761-19.604 28.574-34.792 28.734-34.944a1.17 1.17 0 00.04-1.653 1.164 1.164 0 00-1.653-.039zm268.394-57.985c0-.082 0-.16-.015-.242-.016-.078-.051-.152-.082-.227-.02-.047-.024-.097-.051-.14-20.469-33.797-48.32-53.47-68.082-64.02-22.746-12.144-39.969-15.394-41.469-15.394-1.539 0-4.265-4.989-5.847-9.645-.16-.476-.602-.77-1.118-.793l-63.3.55a1.17 1.17 0 00-1.086.763c-1.743 4.714-4.653 9.765-6.207 9.765-1.817 0-17.125 4.04-35.532 13.024a1.17 1.17 0 001.024 2.105c18.648-9.105 33.21-12.758 34.508-12.789 3.605 0 6.851-7.297 8.113-10.535l61.664-.535c1.172 3.246 4.172 10.43 7.781 10.43.598 0 67.14 11.96 107.309 77.89-2.293 7.438-44.934 42.684-59.602 49.23l-19.8-19.992a1.167 1.167 0 00-1.653-.007 1.167 1.167 0 00-.008 1.652l20.492 20.691c.227.23.528.344.829.344.296 0 .593-.113.824-.336.039-.043.054-.094.09-.137 14.617-6.433 59.671-43 61.203-51.37 0-.005 0-.012.004-.02.004-.035.015-.078.023-.11.004-.054-.012-.101-.012-.152zm-12.757 77.75c-12.282-1.719-23.637 1.121-24.114 1.246a1.17 1.17 0 00.29 2.3c.097 0 .195-.01.288-.034.114-.028 11.403-2.852 23.215-1.196a1.168 1.168 0 00.32-2.316zm-70.344 67.57c-.488.325-18.016 12.145-23.043 17.297a1.172 1.172 0 00.836 1.989c.304 0 .605-.118.836-.356 4.86-4.98 22.554-16.91 22.672-16.988a1.17 1.17 0 00-1.301-1.942zm-233.215-.84a1.169 1.169 0 01-1.168-1.167 1.169 1.169 0 011.164-1.172l87.332-.243h.004a1.17 1.17 0 010 2.34l-87.328.243h-.004zm-14.637 9.887a1.17 1.17 0 010-2.34l123.555-.246a1.17 1.17 0 011.168 1.168 1.164 1.164 0 01-1.164 1.172l-123.555.246h-.004zm0 0"/></svg>