<svg xmlns="http://www.w3.org/2000/svg" width="101" viewBox="0 0 75.75 75.75" height="101" version="1.0"><defs><clipPath id="a"><path d="M0 8h75.5v37H0zm0 0"/></clipPath><clipPath id="b"><path d="M54 14h21.5v31H54zm0 0"/></clipPath><clipPath id="c"><path d="M40 49h20v20.75H40zm0 0"/></clipPath><clipPath id="d"><path d="M40 57h20v12.75H40zm0 0"/></clipPath></defs><path fill="#d9ecf2" d="M49.152.031c3.989.004 7.453 2.754 8.38 6.653a5.53 5.53 0 016.113 1.09 5.6 5.6 0 011.289 6.105 5.562 5.562 0 01-5.149 3.492H49.152c-4.765 0-8.625-3.883-8.625-8.668 0-4.789 3.86-8.672 8.625-8.672zm0 0"/><path fill="#bdd9e5" d="M59.785 6.2c-.457 0-.914.062-1.355.175 2.715.691 4.492 3.309 4.144 6.102-.347 2.793-2.71 4.89-5.511 4.89h2.726c3.066 0 5.555-2.5 5.555-5.586 0-3.082-2.489-5.582-5.555-5.582zm0 0"/><path fill="#bdd9e5" d="M56.824 10.656c-2.539 0-5 .871-6.976 2.473a17.859 17.859 0 00-8.961-6.899 8.69 8.69 0 001.347 7.657 8.62 8.62 0 006.918 3.484h10.633a5.56 5.56 0 005.059-3.285 11.1 11.1 0 00-8.02-3.43zm0 0"/><path fill="#bdd9e5" d="M57.531 10.367a7.674 7.674 0 002.332-4.164c-.027 0-.05-.004-.078-.004-.777 0-1.543.164-2.254.485a8.146 8.146 0 010 3.683zm0 0"/><g clip-path="url(#a)"><path fill="#26a3b9" d="M67.887 26.727a11.225 11.225 0 00-5.61-11.196 11.097 11.097 0 00-12.43 1.043 17.77 17.77 0 00-17.785-7.617c-6.906 1.2-12.468 6.355-14.214 13.172a11.687 11.687 0 00-13.102 1.914 11.832 11.832 0 00-2.984 12.96 11.732 11.732 0 0010.93 7.505h53.824c4.652.004 8.52-3.594 8.879-8.254s-2.915-8.813-7.508-9.527zm0 0"/></g><path fill="#168aa5" d="M34.664 33.113l-9.039 11.395h12.414l9.04-11.395zm0 0"/><g clip-path="url(#b)"><path fill="#168aa5" d="M67.887 26.727a11.2 11.2 0 00-3.477-9.649 11.073 11.073 0 00-9.84-2.734c5.707 1.172 9.535 6.578 8.766 12.383 4.598.714 7.871 4.867 7.512 9.527-.36 4.66-4.23 8.258-8.88 8.254h4.548c4.652.004 8.523-3.594 8.882-8.254.36-4.66-2.914-8.813-7.511-9.527zm0 0"/></g><path fill="#168aa5" d="M14.074 21a18.135 18.135 0 004.059 9.816 18.683 18.683 0 01-.285-8.691A11.73 11.73 0 0014.074 21zm0 0"/><g clip-path="url(#c)"><path fill="#fabe02" d="M57.453 49.816h-8.137L41.36 59.848h6.977L40.5 69.727l18.8-12.442h-7.773zm0 0"/></g><path fill="#fabe02" d="M42.953 33.11H30.54L18.395 48.417h10.644l-11.957 15.07 28.691-18.98H33.914zm0 0"/><g clip-path="url(#d)"><path fill="#f59a1d" d="M56.371 57.285l-12.633 8.36-3.238 4.082 18.8-12.442zm0 0"/></g><path fill="#f59a1d" d="M51.527 57.285l5.926-7.469h-2.93l-5.925 7.47zM33.914 44.508l9.04-11.399h-4.138l-9.039 11.399zm7.723 0l-19.98 13.219-4.575 5.761 28.691-18.98zm0 0"/></svg>