<svg xmlns="http://www.w3.org/2000/svg" xmlns:xlink="http://www.w3.org/1999/xlink" width="101" zoomAndPan="magnify" viewBox="0 0 75.75 75.749998" height="101" preserveAspectRatio="xMidYMid meet" version="1.0"><defs><clipPath id="id1"><path d="M 0 8 L 75.5 8 L 75.5 45 L 0 45 Z M 0 8 " clip-rule="nonzero"/></clipPath><clipPath id="id2"><path d="M 54 14 L 75.5 14 L 75.5 45 L 54 45 Z M 54 14 " clip-rule="nonzero"/></clipPath><clipPath id="id3"><path d="M 40 49 L 60 49 L 60 69.75 L 40 69.75 Z M 40 49 " clip-rule="nonzero"/></clipPath><clipPath id="id4"><path d="M 40 57 L 60 57 L 60 69.75 L 40 69.75 Z M 40 57 " clip-rule="nonzero"/></clipPath></defs><path fill="#d9ecf2" d="M 49.152344 0.03125 C 53.140625 0.0351562 56.605469 2.785156 57.53125 6.683594 C 59.601562 5.761719 62.019531 6.191406 63.644531 7.773438 C 65.273438 9.355469 65.78125 11.769531 64.933594 13.878906 C 64.085938 15.988281 62.046875 17.367188 59.785156 17.371094 L 49.152344 17.371094 C 44.386719 17.371094 40.527344 13.488281 40.527344 8.703125 C 40.527344 3.914062 44.386719 0.03125 49.152344 0.03125 Z M 49.152344 0.03125 " fill-opacity="1" fill-rule="nonzero"/><path fill="#bdd9e5" d="M 59.785156 6.199219 C 59.328125 6.199219 58.871094 6.261719 58.429688 6.375 C 61.144531 7.066406 62.921875 9.683594 62.574219 12.476562 C 62.226562 15.269531 59.863281 17.367188 57.0625 17.367188 L 59.789062 17.367188 C 62.855469 17.367188 65.34375 14.867188 65.34375 11.78125 C 65.34375 8.699219 62.855469 6.199219 59.789062 6.199219 Z M 59.785156 6.199219 " fill-opacity="1" fill-rule="nonzero"/><path fill="#bdd9e5" d="M 56.824219 10.65625 C 54.285156 10.65625 51.824219 11.527344 49.847656 13.128906 C 47.679688 9.914062 44.539062 7.496094 40.886719 6.230469 C 40.105469 8.851562 40.605469 11.691406 42.234375 13.886719 C 43.863281 16.078125 46.425781 17.371094 49.152344 17.371094 L 59.785156 17.371094 C 61.96875 17.367188 63.945312 16.082031 64.84375 14.085938 C 62.746094 11.894531 59.851562 10.65625 56.824219 10.65625 Z M 56.824219 10.65625 " fill-opacity="1" fill-rule="nonzero"/><path fill="#bdd9e5" d="M 57.53125 10.367188 C 58.730469 9.265625 59.546875 7.804688 59.863281 6.203125 C 59.835938 6.203125 59.8125 6.199219 59.785156 6.199219 C 59.007812 6.199219 58.242188 6.363281 57.53125 6.683594 C 57.8125 7.894531 57.8125 9.15625 57.53125 10.367188 Z M 57.53125 10.367188 " fill-opacity="1" fill-rule="nonzero"/><g clip-path="url(#id1)"><path fill="#26a3b9" d="M 67.886719 26.726562 C 68.460938 22.191406 66.242188 17.765625 62.277344 15.53125 C 58.308594 13.296875 53.390625 13.710938 49.847656 16.574219 C 45.925781 10.738281 38.964844 7.761719 32.0625 8.957031 C 25.15625 10.15625 19.59375 15.3125 17.847656 22.128906 C 13.503906 19.992188 8.304688 20.753906 4.746094 24.042969 C 1.191406 27.332031 0.00390625 32.476562 1.761719 37.003906 C 3.519531 41.53125 7.859375 44.507812 12.691406 44.507812 L 66.515625 44.507812 C 71.167969 44.511719 75.035156 40.914062 75.394531 36.253906 C 75.753906 31.59375 72.480469 27.441406 67.886719 26.726562 Z M 67.886719 26.726562 " fill-opacity="1" fill-rule="nonzero"/></g><path fill="#168aa5" d="M 34.664062 33.113281 L 25.625 44.507812 L 38.039062 44.507812 L 47.078125 33.113281 Z M 34.664062 33.113281 " fill-opacity="1" fill-rule="nonzero"/><g clip-path="url(#id2)"><path fill="#168aa5" d="M 67.886719 26.726562 C 68.351562 23.132812 67.058594 19.535156 64.410156 17.078125 C 61.765625 14.617188 58.101562 13.597656 54.570312 14.34375 C 60.277344 15.515625 64.105469 20.921875 63.335938 26.726562 C 67.933594 27.441406 71.207031 31.59375 70.847656 36.253906 C 70.488281 40.914062 66.617188 44.511719 61.96875 44.507812 L 66.515625 44.507812 C 71.167969 44.511719 75.039062 40.914062 75.398438 36.253906 C 75.757812 31.59375 72.484375 27.441406 67.886719 26.726562 Z M 67.886719 26.726562 " fill-opacity="1" fill-rule="nonzero"/></g><path fill="#168aa5" d="M 14.074219 21 C 14.417969 24.605469 15.832031 28.027344 18.132812 30.816406 C 17.355469 27.984375 17.257812 25.003906 17.847656 22.125 C 16.660156 21.539062 15.386719 21.160156 14.074219 21 Z M 14.074219 21 " fill-opacity="1" fill-rule="nonzero"/><g clip-path="url(#id3)"><path fill="#fabe02" d="M 57.453125 49.816406 L 49.316406 49.816406 L 41.359375 59.847656 L 48.335938 59.847656 L 40.5 69.726562 L 59.300781 57.285156 L 51.527344 57.285156 Z M 57.453125 49.816406 " fill-opacity="1" fill-rule="nonzero"/></g><path fill="#fabe02" d="M 42.953125 33.109375 L 30.539062 33.109375 L 18.394531 48.417969 L 29.039062 48.417969 L 17.082031 63.488281 L 45.773438 44.507812 L 33.914062 44.507812 Z M 42.953125 33.109375 " fill-opacity="1" fill-rule="nonzero"/><g clip-path="url(#id4)"><path fill="#f59a1d" d="M 56.371094 57.285156 L 43.738281 65.644531 L 40.5 69.726562 L 59.300781 57.285156 Z M 56.371094 57.285156 " fill-opacity="1" fill-rule="nonzero"/></g><path fill="#f59a1d" d="M 51.527344 57.285156 L 57.453125 49.816406 L 54.523438 49.816406 L 48.597656 57.285156 Z M 51.527344 57.285156 " fill-opacity="1" fill-rule="nonzero"/><path fill="#f59a1d" d="M 33.914062 44.507812 L 42.953125 33.109375 L 38.816406 33.109375 L 29.777344 44.507812 Z M 33.914062 44.507812 " fill-opacity="1" fill-rule="nonzero"/><path fill="#f59a1d" d="M 41.636719 44.507812 L 21.65625 57.726562 L 17.082031 63.488281 L 45.773438 44.507812 Z M 41.636719 44.507812 " fill-opacity="1" fill-rule="nonzero"/></svg>