<svg xmlns="http://www.w3.org/2000/svg" xmlns:xlink="http://www.w3.org/1999/xlink" width="486" zoomAndPan="magnify" viewBox="0 0 364.5 374.999991" height="500" preserveAspectRatio="xMidYMid meet" version="1.0"><defs><clipPath id="id1"><path d="M 59 0.257812 L 278 0.257812 L 278 338 L 59 338 Z M 59 0.257812 " clip-rule="nonzero"/></clipPath></defs><path fill="#f2f2f2" d="M 155.191406 189.011719 C 155.191406 189.011719 156.046875 244.550781 154.703125 249.3125 C 147.261719 252.730469 107.867188 254.558594 87.863281 253.707031 C 67.863281 252.851562 60.421875 250.46875 60.421875 250.46875 C 60.421875 250.46875 62.191406 234.96875 62.859375 233.261719 C 63.53125 231.550781 64.445312 207.628906 64.996094 199.386719 C 65.542969 191.148438 61.886719 167.164062 64.628906 150.871094 C 67.375 134.574219 80.363281 132.925781 102.136719 129.449219 C 123.90625 125.96875 155.921875 127.25 161.410156 127.433594 C 167.632812 127.25 178.976562 126.152344 180.988281 145.375 C 183 164.601562 176.78125 176.320312 176.78125 176.320312 Z M 155.191406 189.011719 C 155.191406 189.011719 156.046875 244.550781 154.703125 249.3125 C 147.261719 252.730469 107.867188 254.558594 87.863281 253.707031 C 67.863281 252.851562 60.421875 250.46875 60.421875 250.46875 C 60.421875 250.46875 62.191406 234.96875 62.859375 233.261719 C 63.53125 231.550781 64.445312 207.628906 64.996094 199.386719 C 65.542969 191.148438 61.886719 167.164062 64.628906 150.871094 C 67.375 134.574219 80.363281 132.925781 102.136719 129.449219 C 123.90625 125.96875 155.921875 127.25 161.410156 127.433594 C 167.632812 127.25 178.976562 126.152344 180.988281 145.375 C 183 164.601562 176.78125 176.320312 176.78125 176.320312 Z M 155.191406 189.011719 " fill-opacity="1" fill-rule="nonzero"/><path fill="#f28383" d="M 223.675781 111.503906 L 258.011719 111.503906 C 277.304688 111.503906 292.988281 126.914062 293.480469 146.101562 C 286.492188 140.566406 271.6875 129.746094 255.449219 123.40625 C 232.945312 114.617188 224.894531 113.335938 224.894531 113.335938 Z M 275.390625 244.941406 C 275.390625 244.941406 275.207031 294.230469 274.476562 295.695312 C 274.136719 296.375 256.507812 310.5625 237.359375 325.492188 L 293.503906 321.203125 L 293.503906 232.671875 Z M 126.039062 111.503906 C 112.515625 111.503906 100.757812 119.078125 94.769531 130.21875 C 100.644531 128.601562 108.082031 127.921875 114.398438 127.660156 L 113.820312 126.929688 C 113.820312 126.929688 141.652344 116.449219 147.140625 115.347656 C 150.164062 114.746094 151.90625 112.972656 152.867188 111.503906 Z M 100.273438 298.578125 C 96.953125 301.472656 93.710938 304.007812 90.546875 306.199219 L 90.546875 336.707031 L 100.75 335.925781 C 100.226562 335.78125 99.9375 335.699219 99.9375 335.699219 Z M 100.273438 298.578125 " fill-opacity="1" fill-rule="nonzero"/><path fill="#efa084" d="M 225.886719 61.101562 C 223.550781 62.09375 221.296875 62.011719 219.523438 61.628906 L 219.957031 104 L 156.65625 104.546875 L 156.878906 61.875 C 155.464844 61.960938 153.875 61.792969 152.25 61.101562 C 147.457031 59.066406 145.21875 48.957031 151.070312 45.414062 C 153.167969 44.140625 155.171875 43.914062 156.96875 44.242188 L 157.019531 34.605469 C 157.019531 34.605469 186.476562 22.523438 200.5625 22.339844 C 214.652344 22.15625 219.226562 32.226562 219.226562 32.226562 L 219.351562 44.773438 C 221.878906 43.027344 224.894531 42.957031 227.730469 44.675781 C 233.582031 48.222656 230.679688 59.066406 225.886719 61.101562 Z M 60.96875 250.105469 C 60.582031 246.214844 63.21875 228.019531 64.792969 217.71875 C 58.785156 213.058594 53.300781 208.882812 51.824219 207.992188 C 51.824219 207.992188 0.0117188 278.261719 27.671875 304.664062 C 51.496094 327.40625 89.414062 327.71875 140.175781 250.414062 C 114.394531 255.964844 69.933594 252.667969 60.96875 250.105469 Z M 60.96875 250.105469 " fill-opacity="1" fill-rule="nonzero"/><g clip-path="url(#id1)"><path fill="#101011" d="M 180.648438 197.109375 C 179.980469 189.347656 179.335938 182.125 178.730469 175.625 C 178.792969 175.554688 178.863281 175.492188 178.910156 175.40625 C 179.179688 174.902344 185.464844 162.8125 181.398438 143.214844 C 178.601562 129.710938 170.4375 125.859375 164.039062 126.628906 C 163.945312 126.597656 163.84375 126.578125 163.734375 126.570312 C 113.222656 123.640625 77.601562 130.148438 69.734375 137.761719 C 61.882812 145.351562 62.160156 150.871094 62.96875 167.246094 C 63.296875 173.792969 63.699219 181.945312 63.765625 192.804688 C 63.929688 220.320312 61.808594 232.554688 60.402344 240.648438 C 59.734375 244.496094 59.253906 247.269531 59.253906 250.289062 C 59.253906 250.800781 59.585938 251.253906 60.078125 251.40625 C 67.761719 253.773438 83.625 254.605469 99.253906 254.605469 C 104.101562 254.605469 108.933594 254.527344 113.484375 254.386719 C 115.722656 254.316406 127.734375 253.910156 138.4375 252.890625 C 135.46875 257.003906 132.117188 261.859375 129.816406 265.363281 C 148.316406 264.730469 183.199219 263.542969 184.097656 263.539062 C 184.285156 263.539062 185.21875 263.476562 185.324219 262.230469 C 185.34375 262.042969 185.351562 261.769531 185.351562 261.410156 C 185.351562 255.355469 182.960938 223.960938 180.648438 197.109375 Z M 113.097656 252.058594 C 94.710938 252.613281 71.8125 252.195312 61.605469 249.414062 C 61.6875 246.902344 62.125 244.390625 62.707031 241.050781 C 64.125 232.871094 66.269531 220.511719 66.101562 192.789062 C 66.039062 181.878906 65.632812 173.699219 65.304688 167.128906 C 64.492188 150.710938 64.273438 146.296875 71.355469 139.441406 C 77.574219 133.429688 108.457031 126.335938 158.269531 128.628906 C 152.652344 131.929688 148.507812 138.882812 149.640625 147.78125 C 152.417969 169.609375 155.160156 208.867188 153.796875 247.890625 C 151.203125 249.417969 135.480469 251.382812 113.097656 252.058594 Z M 173.488281 140.363281 C 172.523438 140.363281 161.457031 141.0625 152.078125 141.695312 C 153.292969 134.699219 158.398438 129.933594 163.847656 129.019531 C 169.5625 128.070312 176.566406 131.417969 179.113281 143.691406 C 181.734375 156.335938 179.804688 165.8125 178.261719 170.667969 C 177.832031 166.191406 177.425781 162.125 177.050781 158.542969 C 175.148438 140.363281 174.828125 140.363281 173.488281 140.363281 Z M 275.644531 244.042969 C 275.636719 243.40625 275.113281 242.894531 274.476562 242.894531 C 274.472656 242.894531 274.464844 242.894531 274.457031 242.894531 C 273.8125 242.902344 273.296875 243.433594 273.308594 244.082031 L 274.753906 335.171875 L 101.125 335.171875 C 101.253906 326.472656 101.527344 310.609375 101.824219 297.195312 C 101.023438 297.871094 100.214844 298.601562 99.441406 299.289062 C 99.148438 312.859375 98.886719 328.363281 98.769531 336.324219 C 98.769531 336.324219 98.773438 336.328125 98.773438 336.332031 C 98.773438 336.335938 98.769531 336.335938 98.769531 336.339844 C 98.769531 336.417969 98.800781 336.488281 98.816406 336.558594 C 98.828125 336.636719 98.832031 336.714844 98.859375 336.785156 C 98.890625 336.859375 98.945312 336.917969 98.988281 336.980469 C 99.027344 337.042969 99.058594 337.109375 99.109375 337.160156 C 99.160156 337.210938 99.226562 337.246094 99.289062 337.285156 C 99.351562 337.328125 99.40625 337.382812 99.476562 337.414062 C 99.542969 337.441406 99.621094 337.445312 99.695312 337.460938 C 99.773438 337.476562 99.84375 337.507812 99.921875 337.511719 C 99.929688 337.511719 99.933594 337.511719 99.9375 337.511719 L 275.941406 337.511719 C 276.253906 337.511719 276.554688 337.382812 276.773438 337.160156 C 276.992188 336.9375 277.113281 336.636719 277.109375 336.320312 Z M 221.449219 16.894531 C 219.550781 9.566406 207.652344 6.914062 201.070312 5.148438 C 200.921875 5.109375 185.859375 1.695312 165.980469 0.726562 C 158.839844 0.378906 154.847656 1.140625 153.769531 3.0625 C 153.5 3.542969 153.171875 4.53125 153.992188 5.742188 C 154.660156 6.730469 155.941406 7.613281 157.480469 8.273438 C 150.5625 10.582031 146.738281 13.761719 145.945312 16.902344 C 145.511719 18.613281 145.597656 21.8125 150.550781 24.75 C 148.605469 27.90625 148.027344 32.398438 150.25 35.027344 C 151.992188 37.09375 155.8125 38.53125 164.140625 34.0625 C 164.613281 34.828125 165.402344 35.640625 166.613281 36.15625 C 170.488281 37.808594 176.828125 35.859375 185.484375 30.363281 C 185.589844 31.390625 186.066406 32.3125 186.898438 33.011719 C 189.113281 34.882812 194.203125 35.070312 201.449219 29.78125 C 202.25 30.960938 203.238281 31.453125 204.015625 31.65625 C 205.816406 32.125 207.746094 31.410156 209.152344 30.644531 C 209.007812 34.980469 209.128906 43.761719 212.246094 46.941406 C 213.074219 47.789062 214.09375 48.230469 215.207031 48.230469 C 217.699219 45.5625 219.351562 44.769531 220.789062 44.007812 C 220.789062 44.007812 221.527344 38.238281 221.695312 36.347656 C 222.242188 30.121094 222.976562 22.796875 221.449219 16.894531 Z M 172.9375 50.351562 C 172.9375 49.105469 171.925781 48.09375 170.679688 48.09375 C 169.433594 48.09375 168.425781 49.105469 168.425781 50.351562 C 168.425781 51.601562 169.433594 52.609375 170.679688 52.609375 C 171.925781 52.609375 172.9375 51.601562 172.9375 50.351562 Z M 227.117188 49.492188 C 227.269531 48.871094 226.898438 48.242188 226.28125 48.085938 C 226.191406 48.0625 224.089844 47.546875 221.945312 48.90625 C 221.109375 49.433594 220.398438 50.175781 219.796875 51.09375 C 219.550781 51.28125 219.390625 51.554688 219.34375 51.859375 C 218.761719 52.964844 218.3125 54.28125 218.011719 55.832031 C 217.890625 56.464844 218.304688 57.078125 218.9375 57.203125 C 219.011719 57.214844 219.085938 57.222656 219.160156 57.222656 C 219.710938 57.222656 220.199219 56.835938 220.308594 56.277344 C 220.546875 55.039062 220.894531 53.984375 221.332031 53.109375 C 221.652344 53.113281 222.042969 53.175781 222.308594 53.425781 C 222.773438 53.863281 222.894531 54.898438 222.644531 56.339844 C 222.53125 56.976562 222.957031 57.582031 223.59375 57.695312 C 223.664062 57.707031 223.730469 57.710938 223.796875 57.710938 C 224.355469 57.710938 224.847656 57.3125 224.945312 56.742188 C 225.351562 54.417969 224.996094 52.722656 223.886719 51.703125 C 223.582031 51.417969 223.25 51.230469 222.917969 51.089844 C 222.996094 51.03125 223.074219 50.960938 223.15625 50.90625 C 224.4375 50.074219 225.664062 50.34375 225.714844 50.355469 C 226.335938 50.5 226.96875 50.113281 227.117188 49.492188 Z M 199.15625 50.351562 C 199.15625 49.105469 198.148438 48.09375 196.902344 48.09375 C 195.65625 48.09375 194.644531 49.105469 194.644531 50.351562 C 194.644531 51.601562 195.65625 52.609375 196.902344 52.609375 C 198.148438 52.609375 199.15625 51.601562 199.15625 50.351562 Z M 203.0625 60.757812 C 202.449219 60.546875 201.789062 60.875 201.578125 61.484375 C 197.027344 74.777344 190.976562 79.136719 186.394531 78.84375 C 188.058594 75.199219 189.691406 70.289062 191.09375 63.65625 C 191.230469 63.023438 190.828125 62.402344 190.195312 62.269531 C 189.566406 62.136719 188.941406 62.539062 188.808594 63.171875 C 185.046875 80.933594 179.753906 85.378906 177.65625 86.464844 C 176.554688 87.035156 175.863281 86.953125 175.761719 86.910156 C 173.832031 85.734375 176.496094 78.914062 178.671875 73.886719 C 185.378906 58.375 183.609375 48.703125 183.53125 48.296875 C 183.40625 47.664062 182.792969 47.253906 182.164062 47.375 C 181.53125 47.496094 181.113281 48.109375 181.234375 48.742188 C 181.253906 48.832031 182.851562 57.847656 176.859375 72.167969 C 173.632812 67.53125 171.761719 62.085938 171.742188 62.027344 C 171.53125 61.414062 170.871094 61.089844 170.257812 61.296875 C 169.648438 61.503906 169.320312 62.167969 169.527344 62.777344 C 169.617188 63.042969 171.777344 69.347656 175.621094 74.449219 C 175.679688 74.519531 175.742188 74.585938 175.808594 74.644531 C 172.628906 82.257812 171.507812 87.054688 174.542969 88.910156 C 174.949219 89.15625 175.464844 89.28125 176.039062 89.28125 C 176.707031 89.28125 177.464844 89.113281 178.234375 88.78125 C 179.996094 88.019531 182.632812 86.054688 185.308594 81.054688 C 185.792969 81.136719 186.285156 81.195312 186.796875 81.195312 C 192.230469 81.195312 198.984375 76.289062 203.789062 62.242188 C 204 61.632812 203.671875 60.964844 203.0625 60.757812 Z M 156.925781 53.121094 L 156.945312 49.242188 C 156.792969 49.125 156.640625 49.007812 156.476562 48.90625 C 154.332031 47.546875 152.230469 48.0625 152.144531 48.085938 C 151.523438 48.242188 151.152344 48.871094 151.304688 49.492188 C 151.457031 50.113281 152.085938 50.5 152.710938 50.355469 C 152.757812 50.34375 153.984375 50.074219 155.265625 50.90625 C 155.347656 50.960938 155.425781 51.03125 155.503906 51.089844 C 155.171875 51.230469 154.839844 51.417969 154.535156 51.703125 C 153.429688 52.722656 153.074219 54.417969 153.476562 56.742188 C 153.574219 57.3125 154.070312 57.710938 154.625 57.710938 C 154.691406 57.710938 154.761719 57.707031 154.828125 57.695312 C 155.464844 57.582031 155.890625 56.976562 155.78125 56.339844 C 155.527344 54.898438 155.648438 53.863281 156.113281 53.425781 C 156.335938 53.21875 156.640625 53.140625 156.925781 53.121094 Z M 156.925781 53.121094 " fill-opacity="1" fill-rule="nonzero"/></g><path fill="#efa084" d="M 327.167969 204.882812 C 327.167969 204.882812 353.511719 242.230469 359 276.652344 C 364.488281 311.074219 291.675781 341.464844 259.839844 358.3125 C 228.007812 375.15625 229.46875 362.707031 231.664062 356.480469 C 221.421875 362.339844 215.566406 356.113281 220.6875 348.058594 C 210.808594 353.917969 203.125 341.464844 218.492188 328.652344 C 242.644531 309.242188 295.945312 277.261719 300.578125 273.601562 C 294.96875 264.082031 282.527344 239.667969 282.527344 239.667969 C 298.261719 229.050781 327.167969 204.882812 327.167969 204.882812 Z M 156.875 225.96875 C 162.128906 217.773438 166.183594 209.855469 165.625 205.390625 C 165.632812 202.527344 163.914062 201.363281 160.773438 201 C 159.546875 200.855469 158.039062 201.378906 156.519531 202.1875 C 156.695312 207.671875 156.921875 216.671875 156.875 225.96875 Z M 156.875 225.96875 " fill-opacity="1" fill-rule="nonzero"/><path fill="#101011" d="M 243.195312 330.957031 C 243.082031 331.054688 225.582031 344.695312 221.527344 348.871094 C 221.296875 349.109375 220.992188 349.226562 220.6875 349.226562 C 220.394531 349.226562 220.101562 349.117188 219.875 348.898438 C 219.410156 348.445312 219.402344 347.707031 219.851562 347.242188 C 223.992188 342.976562 241.226562 329.554688 241.703125 329.160156 C 242.199219 328.746094 242.933594 328.816406 243.347656 329.3125 C 243.761719 329.808594 243.691406 330.546875 243.195312 330.957031 Z M 39.664062 194.183594 C 39.664062 194.195312 39.667969 194.207031 39.671875 194.21875 C 40.59375 199.300781 56.5625 213.183594 63.433594 218.953125 C 63.652344 219.140625 63.921875 219.230469 64.1875 219.230469 C 64.519531 219.230469 64.851562 219.085938 65.082031 218.8125 C 65.496094 218.316406 65.433594 217.578125 64.9375 217.164062 C 50.164062 204.753906 42.929688 196.800781 42.054688 194.121094 C 48.851562 182.964844 55.875 173.902344 64.792969 164.808594 C 65.246094 164.347656 65.238281 163.609375 64.777344 163.15625 C 64.316406 162.703125 63.578125 162.710938 63.125 163.171875 C 53.964844 172.511719 46.769531 181.808594 39.800781 193.320312 C 39.773438 193.363281 39.769531 193.414062 39.75 193.460938 C 39.714844 193.535156 39.683594 193.609375 39.667969 193.691406 C 39.648438 193.769531 39.652344 193.847656 39.652344 193.929688 C 39.652344 193.980469 39.632812 194.027344 39.640625 194.082031 C 39.644531 194.113281 39.65625 194.152344 39.664062 194.183594 Z M 68.214844 251.273438 C 68.054688 251.425781 52.046875 266.792969 39.132812 286.632812 C 38.78125 287.175781 38.933594 287.898438 39.476562 288.253906 C 39.671875 288.378906 39.894531 288.441406 40.113281 288.441406 C 40.496094 288.441406 40.867188 288.253906 41.09375 287.910156 C 53.855469 268.304688 69.667969 253.117188 69.828125 252.964844 C 70.292969 252.519531 70.3125 251.777344 69.867188 251.3125 C 69.417969 250.84375 68.679688 250.824219 68.214844 251.273438 Z M 336.609375 193.289062 C 336.609375 193.207031 336.609375 193.128906 336.59375 193.046875 C 336.578125 192.96875 336.542969 192.894531 336.511719 192.820312 C 336.492188 192.773438 336.488281 192.722656 336.460938 192.679688 C 315.992188 158.882812 288.140625 139.210938 268.378906 128.660156 C 245.632812 116.515625 228.410156 113.265625 226.910156 113.265625 C 225.371094 113.265625 222.644531 108.277344 221.0625 103.621094 C 220.902344 103.144531 220.460938 102.851562 219.945312 102.828125 L 156.644531 103.378906 C 156.160156 103.382812 155.726562 103.6875 155.558594 104.140625 C 153.816406 108.855469 150.90625 113.90625 149.351562 113.90625 C 147.535156 113.90625 132.226562 117.945312 113.820312 126.929688 C 113.238281 127.214844 112.996094 127.914062 113.28125 128.496094 C 113.5625 129.078125 114.265625 129.316406 114.84375 129.035156 C 133.492188 119.929688 148.054688 116.277344 149.351562 116.246094 C 152.957031 116.246094 156.203125 108.949219 157.464844 105.710938 L 219.128906 105.175781 C 220.300781 108.421875 223.300781 115.605469 226.910156 115.605469 C 227.507812 115.605469 294.050781 127.566406 334.21875 193.496094 C 331.925781 200.933594 289.285156 236.179688 274.617188 242.726562 L 254.816406 222.734375 C 254.363281 222.273438 253.621094 222.273438 253.164062 222.726562 C 252.703125 223.179688 252.703125 223.921875 253.15625 224.378906 L 273.648438 245.070312 C 273.875 245.300781 274.175781 245.414062 274.476562 245.414062 C 274.773438 245.414062 275.070312 245.300781 275.300781 245.078125 C 275.339844 245.035156 275.355469 244.984375 275.390625 244.941406 C 290.007812 238.507812 335.0625 201.941406 336.59375 193.570312 C 336.59375 193.566406 336.59375 193.558594 336.597656 193.550781 C 336.601562 193.515625 336.613281 193.472656 336.621094 193.441406 C 336.625 193.386719 336.609375 193.339844 336.609375 193.289062 Z M 323.851562 271.039062 C 311.570312 269.320312 300.214844 272.160156 299.738281 272.285156 C 299.117188 272.445312 298.738281 273.082031 298.898438 273.707031 C 299.03125 274.234375 299.507812 274.585938 300.027344 274.585938 C 300.125 274.585938 300.222656 274.574219 300.316406 274.550781 C 300.429688 274.523438 311.71875 271.699219 323.53125 273.355469 C 324.164062 273.441406 324.757812 273 324.847656 272.359375 C 324.9375 271.71875 324.492188 271.128906 323.851562 271.039062 Z M 253.507812 338.609375 C 253.019531 338.933594 235.492188 350.753906 230.464844 355.90625 C 230.011719 356.371094 230.023438 357.109375 230.484375 357.5625 C 230.710938 357.78125 231.003906 357.894531 231.300781 357.894531 C 231.605469 357.894531 231.90625 357.777344 232.136719 357.539062 C 236.996094 352.558594 254.691406 340.628906 254.808594 340.550781 C 255.34375 340.191406 255.488281 339.464844 255.128906 338.929688 C 254.769531 338.390625 254.042969 338.246094 253.507812 338.609375 Z M 20.292969 337.769531 C 19.648438 337.769531 19.125 337.246094 19.125 336.601562 C 19.121094 335.957031 19.644531 335.433594 20.289062 335.429688 L 107.621094 335.1875 C 107.621094 335.1875 107.621094 335.1875 107.625 335.1875 C 108.265625 335.1875 108.789062 335.707031 108.792969 336.351562 C 108.792969 337 108.273438 337.523438 107.625 337.527344 L 20.296875 337.769531 C 20.296875 337.769531 20.292969 337.769531 20.292969 337.769531 Z M 5.65625 347.65625 C 5.011719 347.65625 4.488281 347.132812 4.488281 346.488281 C 4.488281 345.84375 5.007812 345.316406 5.65625 345.316406 L 129.210938 345.070312 C 129.855469 345.070312 130.378906 345.59375 130.378906 346.238281 C 130.382812 346.886719 129.859375 347.410156 129.214844 347.410156 L 5.660156 347.65625 C 5.660156 347.65625 5.660156 347.65625 5.65625 347.65625 Z M 5.65625 347.65625 " fill-opacity="1" fill-rule="nonzero"/></svg>